<!-- Generator: Adobe Illustrator 24.1.2, SVG Export Plug-In  -->
<svg version="1.1" xmlns="http://www.w3.org/2000/svg" xmlns:xlink="http://www.w3.org/1999/xlink" x="0px" y="0px" width="225.6px"
	 height="96px" viewBox="0 0 225.6 96" style="overflow:visible;enable-background:new 0 0 225.6 96;" xml:space="preserve">
<style type="text/css">
	.st0{clip-path:url(#SVGID_2_);fill:url(#SVGID_3_);}
	.st1{fill:#FFFFFF;}
	.st2{clip-path:url(#SVGID_5_);fill:url(#SVGID_6_);}
</style>
<defs>
</defs>
<g>
	<defs>
		<rect id="SVGID_1_" x="4.6" y="32.9" width="216.4" height="30.1"/>
	</defs>
	<clipPath id="SVGID_2_">
		<use xlink:href="#SVGID_1_"  style="overflow:visible;"/>
	</clipPath>
	
		<linearGradient id="SVGID_3_" gradientUnits="userSpaceOnUse" x1="-416.8333" y1="221.4878" x2="-415.8333" y2="221.4878" gradientTransform="matrix(392.3984 61.1875 61.1875 -392.3984 149949.7188 112437.1016)">
		<stop  offset="0" style="stop-color:#98D4E6"/>
		<stop  offset="0.1308" style="stop-color:#90D0E5"/>
		<stop  offset="0.3184" style="stop-color:#7AC2E1"/>
		<stop  offset="0.5402" style="stop-color:#4DADDA"/>
		<stop  offset="0.786" style="stop-color:#0091CF"/>
		<stop  offset="1" style="stop-color:#0079C2"/>
	</linearGradient>
	<polygon class="st0" points="9.7,0 225.6,33.7 215.8,96 0,62.4 	"/>
</g>
<path class="st1" d="M23.8,53.9c-0.5,0.8-1.1,1.3-1.9,1.7c-0.8,0.4-1.7,0.6-2.6,0.6c-1,0-1.8-0.2-2.6-0.5c-0.8-0.3-1.4-0.8-2-1.4
	c-0.5-0.6-1-1.3-1.3-2.1c-0.3-0.8-0.4-1.7-0.4-2.6c0-0.9,0.1-1.8,0.4-2.6c0.3-0.8,0.7-1.5,1.3-2.1c0.6-0.6,1.2-1.1,2-1.4
	c0.8-0.3,1.6-0.5,2.6-0.5c1,0,1.9,0.2,2.7,0.6c0.8,0.4,1.4,1,1.8,1.6h0.1v-9.3h2.5v20h-2.4L23.8,53.9L23.8,53.9z M15.5,49.6
	c0,0.6,0.1,1.1,0.3,1.7c0.2,0.5,0.4,1,0.8,1.4c0.4,0.4,0.8,0.8,1.3,1c0.5,0.3,1.1,0.4,1.8,0.4c0.6,0,1.2-0.1,1.7-0.4
	c0.5-0.2,1-0.6,1.3-1c0.4-0.4,0.7-0.9,0.9-1.4c0.2-0.5,0.3-1.1,0.3-1.7c0-0.6-0.1-1.2-0.3-1.7c-0.2-0.5-0.5-1-0.9-1.4
	c-0.4-0.4-0.8-0.8-1.3-1c-0.5-0.2-1.1-0.4-1.7-0.4c-0.7,0-1.3,0.1-1.8,0.4c-0.5,0.2-0.9,0.6-1.3,1c-0.4,0.4-0.6,0.9-0.8,1.4
	C15.6,48.5,15.5,49.1,15.5,49.6"/>
<path class="st1" d="M38.3,47.8c0-0.9-0.3-1.6-0.8-2.1c-0.6-0.4-1.3-0.7-2.2-0.7c-0.7,0-1.4,0.1-2,0.4c-0.6,0.3-1.1,0.6-1.6,1
	l-1.3-1.6c0.6-0.6,1.4-1,2.3-1.4c0.9-0.3,1.8-0.5,2.9-0.5c0.9,0,1.7,0.1,2.3,0.4c0.7,0.3,1.2,0.6,1.6,1c0.4,0.4,0.7,1,1,1.6
	c0.2,0.6,0.3,1.2,0.3,1.9v5.5c0,0.4,0,0.9,0,1.3c0,0.5,0.1,0.9,0.1,1.1h-2.2c-0.1-0.6-0.2-1.2-0.2-1.8h-0.1c-0.5,0.7-1,1.2-1.7,1.6
	c-0.7,0.4-1.5,0.6-2.5,0.6c-0.5,0-1-0.1-1.5-0.2c-0.5-0.1-1-0.3-1.5-0.6c-0.4-0.3-0.8-0.7-1.1-1.2c-0.3-0.5-0.4-1.1-0.4-1.8
	c0-0.9,0.3-1.7,0.8-2.3c0.5-0.6,1.2-1,2-1.3c0.8-0.3,1.8-0.5,2.8-0.6c1-0.1,2.1-0.1,3.1-0.1V47.8z M37.7,49.9c-0.6,0-1.3,0-1.9,0.1
	c-0.7,0.1-1.3,0.2-1.8,0.3c-0.5,0.2-1,0.4-1.3,0.7c-0.4,0.3-0.5,0.7-0.5,1.3c0,0.4,0.1,0.7,0.2,0.9c0.1,0.2,0.3,0.4,0.6,0.6
	c0.2,0.2,0.5,0.3,0.8,0.3c0.3,0.1,0.6,0.1,0.9,0.1c1.2,0,2.1-0.3,2.7-1c0.6-0.7,0.9-1.6,0.9-2.6v-0.7H37.7z"/>
<path class="st1" d="M50.7,45.4h-3.3v6.5c0,0.8,0.1,1.3,0.4,1.6c0.3,0.3,0.7,0.5,1.3,0.5c0.2,0,0.5,0,0.7-0.1c0.3,0,0.5-0.1,0.7-0.2
	l0.1,2c-0.3,0.1-0.6,0.2-1,0.3c-0.4,0.1-0.7,0.1-1.1,0.1c-1.2,0-2.1-0.3-2.7-1c-0.6-0.7-0.9-1.6-0.9-2.9v-6.8h-2.4v-2h2.4v-3.6h2.5
	v3.6h3.3V45.4z"/>
<path class="st1" d="M61.1,47.8c0-0.9-0.3-1.6-0.8-2.1c-0.6-0.4-1.3-0.7-2.2-0.7c-0.7,0-1.4,0.1-2,0.4c-0.6,0.3-1.1,0.6-1.6,1
	l-1.3-1.6c0.6-0.6,1.4-1,2.3-1.4c0.9-0.3,1.8-0.5,2.9-0.5c0.9,0,1.7,0.1,2.3,0.4c0.7,0.3,1.2,0.6,1.6,1c0.4,0.4,0.7,1,1,1.6
	c0.2,0.6,0.3,1.2,0.3,1.9v5.5c0,0.4,0,0.9,0,1.3c0,0.5,0.1,0.9,0.1,1.1h-2.2c-0.1-0.6-0.2-1.2-0.2-1.8h-0.1c-0.5,0.7-1,1.2-1.7,1.6
	c-0.7,0.4-1.5,0.6-2.5,0.6c-0.5,0-1-0.1-1.5-0.2c-0.5-0.1-1-0.3-1.5-0.6c-0.4-0.3-0.8-0.7-1.1-1.2c-0.3-0.5-0.4-1.1-0.4-1.8
	c0-0.9,0.3-1.7,0.8-2.3c0.5-0.6,1.2-1,2-1.3c0.8-0.3,1.8-0.5,2.8-0.6c1-0.1,2.1-0.1,3.1-0.1V47.8z M60.5,49.9c-0.6,0-1.3,0-1.9,0.1
	c-0.7,0.1-1.3,0.2-1.8,0.3c-0.5,0.2-1,0.4-1.3,0.7c-0.4,0.3-0.5,0.7-0.5,1.3c0,0.4,0.1,0.7,0.2,0.9c0.1,0.2,0.3,0.4,0.6,0.6
	c0.2,0.2,0.5,0.3,0.8,0.3c0.3,0.1,0.6,0.1,0.9,0.1c1.2,0,2.1-0.3,2.7-1c0.6-0.7,0.9-1.6,0.9-2.6v-0.7H60.5z"/>
<path class="st1" d="M85.9,49.5V50c0,0.1,0,0.3,0,0.4h-10c0,0.5,0.1,1,0.4,1.5c0.2,0.5,0.5,0.9,0.9,1.2c0.4,0.3,0.8,0.6,1.3,0.8
	c0.5,0.2,1,0.3,1.5,0.3c0.8,0,1.6-0.2,2.2-0.6c0.6-0.4,1.1-0.8,1.5-1.3l1.7,1.4c-0.7,0.9-1.5,1.5-2.4,2c-0.9,0.4-1.9,0.6-3,0.6
	c-0.9,0-1.8-0.2-2.6-0.5c-0.8-0.3-1.5-0.8-2.1-1.3c-0.6-0.6-1-1.3-1.4-2.1c-0.3-0.8-0.5-1.7-0.5-2.7c0-1,0.2-1.9,0.5-2.7
	c0.3-0.8,0.8-1.5,1.4-2.1c0.6-0.6,1.3-1,2.1-1.4c0.8-0.3,1.6-0.5,2.6-0.5s1.8,0.2,2.5,0.4c0.7,0.3,1.4,0.7,1.9,1.3
	c0.5,0.6,0.9,1.2,1.2,2C85.7,47.6,85.9,48.5,85.9,49.5 M83.3,48.5c0-0.5-0.1-1-0.3-1.4c-0.1-0.4-0.4-0.8-0.7-1.1
	c-0.3-0.3-0.7-0.6-1.1-0.8c-0.4-0.2-0.9-0.3-1.5-0.3c-0.5,0-1,0.1-1.5,0.3c-0.5,0.2-0.9,0.4-1.2,0.8c-0.3,0.3-0.6,0.7-0.8,1.1
	c-0.2,0.4-0.3,0.9-0.4,1.4H83.3z"/>
<polygon class="st1" points="95.2,55.9 92.5,55.9 87.4,43.4 90.2,43.4 93.8,53.2 93.9,53.2 97.6,43.4 100.2,43.4 "/>
<path class="st1" d="M114.3,49.5V50c0,0.1,0,0.3,0,0.4h-10c0,0.5,0.1,1,0.4,1.5c0.2,0.5,0.5,0.9,0.9,1.2c0.4,0.3,0.8,0.6,1.3,0.8
	c0.5,0.2,1,0.3,1.5,0.3c0.8,0,1.6-0.2,2.2-0.6c0.6-0.4,1.1-0.8,1.5-1.3l1.7,1.4c-0.7,0.9-1.5,1.5-2.4,2c-0.9,0.4-1.9,0.6-3,0.6
	c-1,0-1.8-0.2-2.6-0.5c-0.8-0.3-1.5-0.8-2.1-1.3c-0.6-0.6-1-1.3-1.4-2.1c-0.3-0.8-0.5-1.7-0.5-2.7c0-1,0.2-1.9,0.5-2.7
	c0.3-0.8,0.8-1.5,1.4-2.1c0.6-0.6,1.3-1,2.1-1.4c0.8-0.3,1.6-0.5,2.6-0.5s1.8,0.2,2.5,0.4c0.7,0.3,1.4,0.7,1.9,1.3
	c0.5,0.6,0.9,1.2,1.2,2C114.2,47.6,114.3,48.5,114.3,49.5 M111.8,48.5c0-0.5-0.1-1-0.3-1.4s-0.4-0.8-0.7-1.1
	c-0.3-0.3-0.7-0.6-1.1-0.8c-0.4-0.2-0.9-0.3-1.5-0.3c-0.5,0-1,0.1-1.5,0.3c-0.5,0.2-0.9,0.4-1.2,0.8c-0.3,0.3-0.6,0.7-0.8,1.1
	c-0.2,0.4-0.3,0.9-0.4,1.4H111.8z"/>
<path class="st1" d="M117.7,44.8c0-0.5,0-1-0.1-1.4h2.4c0,0.3,0.1,0.7,0.1,1.1c0,0.4,0,0.8,0,1h0.1c0.4-0.7,0.9-1.3,1.5-1.8
	c0.7-0.4,1.4-0.7,2.3-0.7c0.4,0,0.7,0,1,0.1l-0.1,2.3c-0.4-0.1-0.7-0.1-1.1-0.1c-0.6,0-1.1,0.1-1.6,0.3c-0.4,0.2-0.8,0.5-1.1,0.9
	c-0.3,0.4-0.5,0.8-0.6,1.3c-0.1,0.5-0.2,1-0.2,1.5v6.6h-2.5v-9.8C117.7,45.7,117.7,45.3,117.7,44.8"/>
<path class="st1" d="M132,53.2L132,53.2l3.5-9.8h2.6l-6.1,15.5c-0.2,0.5-0.4,1-0.7,1.4c-0.2,0.4-0.5,0.8-0.9,1.1
	c-0.3,0.3-0.7,0.5-1.2,0.7c-0.4,0.2-1,0.2-1.6,0.2c-0.3,0-0.5,0-0.8,0c-0.3,0-0.5-0.1-0.8-0.1l0.2-2.2c0.4,0.1,0.8,0.2,1.2,0.2
	c0.6,0,1.1-0.2,1.5-0.5c0.3-0.4,0.6-0.9,0.9-1.5l0.8-2.1l-5.4-12.5h2.8L132,53.2z"/>
<polygon class="st1" points="141.5,43.4 144.3,52.9 144.4,52.9 147.4,43.4 150,43.4 153,52.9 153.1,52.9 155.9,43.4 158.5,43.4 
	154.4,55.9 151.8,55.9 148.7,46.5 148.6,46.5 145.6,55.9 143,55.9 138.8,43.4 "/>
<path class="st1" d="M163.6,45.3c0.3-0.6,0.8-1.1,1.5-1.6c0.7-0.4,1.5-0.7,2.4-0.7c0.8,0,1.5,0.1,2.1,0.4c0.6,0.3,1.1,0.6,1.5,1.1
	c0.4,0.5,0.7,1,0.9,1.6c0.2,0.6,0.3,1.3,0.3,2v7.8h-2.5V49c0-0.5,0-1-0.1-1.5c-0.1-0.5-0.2-0.9-0.4-1.2s-0.5-0.6-0.9-0.8
	c-0.4-0.2-0.8-0.3-1.4-0.3c-1,0-1.8,0.4-2.4,1.1c-0.6,0.8-1,1.8-1,3v6.6h-2.5v-20h2.5L163.6,45.3L163.6,45.3z"/>
<path class="st1" d="M188.1,49.5V50c0,0.1,0,0.3,0,0.4h-10c0,0.5,0.1,1,0.4,1.5c0.2,0.5,0.5,0.9,0.9,1.2c0.4,0.3,0.8,0.6,1.3,0.8
	c0.5,0.2,1,0.3,1.5,0.3c0.8,0,1.6-0.2,2.2-0.6c0.6-0.4,1.1-0.8,1.5-1.3l1.7,1.4c-0.7,0.9-1.5,1.5-2.4,2c-0.9,0.4-1.9,0.6-3,0.6
	c-1,0-1.8-0.2-2.6-0.5c-0.8-0.3-1.5-0.8-2.1-1.3c-0.6-0.6-1-1.3-1.4-2.1c-0.3-0.8-0.5-1.7-0.5-2.7c0-1,0.2-1.9,0.5-2.7
	c0.3-0.8,0.8-1.5,1.4-2.1c0.6-0.6,1.3-1,2.1-1.4c0.8-0.3,1.6-0.5,2.6-0.5s1.8,0.2,2.5,0.4c0.7,0.3,1.4,0.7,1.9,1.3
	c0.5,0.6,0.9,1.2,1.2,2C188,47.6,188.1,48.5,188.1,49.5 M185.6,48.5c0-0.5-0.1-1-0.3-1.4s-0.4-0.8-0.7-1.1c-0.3-0.3-0.7-0.6-1.1-0.8
	c-0.4-0.2-0.9-0.3-1.5-0.3c-0.5,0-1,0.1-1.5,0.3c-0.5,0.2-0.9,0.4-1.2,0.8c-0.3,0.3-0.6,0.7-0.8,1.1c-0.2,0.4-0.3,0.9-0.4,1.4H185.6
	z"/>
<path class="st1" d="M191.5,44.8c0-0.5,0-1-0.1-1.4h2.4c0,0.3,0.1,0.7,0.1,1.1c0,0.4,0,0.8,0,1h0.1c0.4-0.7,0.9-1.3,1.5-1.8
	c0.7-0.4,1.4-0.7,2.3-0.7c0.4,0,0.7,0,1,0.1l-0.1,2.3c-0.4-0.1-0.7-0.1-1.1-0.1c-0.6,0-1.1,0.1-1.6,0.3c-0.4,0.2-0.8,0.5-1.1,0.9
	c-0.3,0.4-0.5,0.8-0.6,1.3c-0.1,0.5-0.2,1-0.2,1.5v6.6h-2.5v-9.8C191.5,45.7,191.5,45.3,191.5,44.8"/>
<path class="st1" d="M212.3,49.5V50c0,0.1,0,0.3,0,0.4h-10c0,0.5,0.1,1,0.4,1.5c0.2,0.5,0.5,0.9,0.9,1.2c0.4,0.3,0.8,0.6,1.3,0.8
	c0.5,0.2,1,0.3,1.5,0.3c0.8,0,1.6-0.2,2.2-0.6c0.6-0.4,1.1-0.8,1.5-1.3l1.7,1.4c-0.7,0.9-1.5,1.5-2.4,2c-0.9,0.4-1.9,0.6-3,0.6
	c-1,0-1.8-0.2-2.6-0.5c-0.8-0.3-1.5-0.8-2.1-1.3c-0.6-0.6-1-1.3-1.4-2.1c-0.3-0.8-0.5-1.7-0.5-2.7c0-1,0.2-1.9,0.5-2.7
	c0.3-0.8,0.8-1.5,1.4-2.1c0.6-0.6,1.3-1,2.1-1.4c0.8-0.3,1.6-0.5,2.6-0.5s1.8,0.2,2.5,0.4c0.7,0.3,1.4,0.7,1.9,1.3
	c0.5,0.6,0.9,1.2,1.2,2C212.2,47.6,212.3,48.5,212.3,49.5 M209.8,48.5c0-0.5-0.1-1-0.3-1.4s-0.4-0.8-0.7-1.1
	c-0.3-0.3-0.7-0.6-1.1-0.8c-0.4-0.2-0.9-0.3-1.5-0.3c-0.5,0-1,0.1-1.5,0.3c-0.5,0.2-0.9,0.4-1.2,0.8c-0.3,0.3-0.6,0.7-0.8,1.1
	c-0.2,0.4-0.3,0.9-0.4,1.4H209.8z"/>
</svg>
