<?xml version="1.0" encoding="utf-8"?>
<svg fill="#79c7de" version="1.1" xmlns="http://www.w3.org/2000/svg" xmlns:xlink="http://www.w3.org/1999/xlink" x="0px" y="0px" width="248px"
	 height="512px" viewBox="0 0 248 512" style="overflow:visible;enable-background:new 0 0 248 512;" xml:space="preserve">
<defs>
</defs>
<path d="M247,483l-75.1-248.3c2.8-1.1,4.9-3.8,4.9-7v-41.9c0-4.1-3.4-7.5-7.5-7.5h-7.8V95.8c0-4.1-3.4-7.5-7.5-7.5s-7.5,3.4-7.5,7.5
	v82.4h-45V53.9h45V63c0,4.1,3.4,7.5,7.5,7.5s7.5-3.4,7.5-7.5V46.4c0-4.1-3.4-7.5-7.5-7.5h-7.5V7.5c0-4.1-3.4-7.5-7.5-7.5h-30
	c-4.1,0-7.5,3.4-7.5,7.5v31.4H94c-4.1,0-7.5,3.4-7.5,7.5v57.1h-0.3v15h0.3v59.7h-7.8c-4.1,0-7.5,3.4-7.5,7.5v41.9c0,3.2,2,5.9,4.9,7
	L68.7,259c-1.2,4,1,8.2,5,9.4c0.7,0.2,1.5,0.3,2.2,0.3c3.2,0,6.2-2.1,7.2-5.3l8.5-28.2h9.9v19.4L29.8,491.7c-1.2,4-5.4,6.2-9.4,5
	c-1.9-0.6-3.5-1.9-4.5-3.6c-0.9-1.8-1.2-3.8-0.6-5.7l58.5-193.4c1.2-4-1-8.2-5-9.4c-4-1.2-8.2,1-9.4,5L1,483
	c-1.7,5.8-1.1,11.8,1.7,17.1c2.9,5.3,7.6,9.2,13.4,10.9c2.2,0.6,4.3,1,6.5,1c9.7,0,18.7-6.3,21.6-16l57.4-189.6v183.1
	c0,12.4,10.1,22.5,22.5,22.5s22.5-10.1,22.5-22.5v-42c0-4.1-3.4-7.5-7.5-7.5c-4.1,0-7.5,3.4-7.5,7.5v42c0,4.1-3.4,7.5-7.5,7.5
	c-4.1,0-7.5-3.4-7.5-7.5V255.8c0-0.1,0-0.3,0-0.4v-20.3h15v20.4v0.3v159.9c0,4.1,3.4,7.5,7.5,7.5c4.1,0,7.5-3.4,7.5-7.5V306.4
	L203.9,496c2.9,9.7,11.9,16,21.6,16c2.1,0,4.3-0.3,6.5-1c5.8-1.7,10.5-5.6,13.4-10.9C248.2,494.9,248.8,488.8,247,483z M116.5,15h15
	v23.9h-15V15z M86.2,220.1v-26.9h75.5v26.9H86.2z M232.1,493c-1,1.8-2.5,3.1-4.5,3.6c-4,1.2-8.2-1.1-9.4-5l-71.7-237.1v-19.4h9.9
	l76.3,252.2C233.3,489.2,233.1,491.3,232.1,493z"/>
</svg>
