<?xml version="1.0" encoding="utf-8"?>
<svg fill="#79c7de" version="1.1" xmlns="http://www.w3.org/2000/svg" xmlns:xlink="http://www.w3.org/1999/xlink" x="0px" y="0px" width="501px"
	 height="512px" viewBox="0 0 501 512" style="overflow:visible;enable-background:new 0 0 501 512;" xml:space="preserve">
<defs>
</defs>
<g>
	<g>
		<path d="M402.3,314.6c-18.9,0-36.5,5.3-51.5,14.6c-15.9-21-24.6-46.7-24.6-73.2c0-26.4,8.7-52.2,24.6-73.2
			c15.5,9.5,33.3,14.5,51.6,14.5c5.9,0,11.8-0.5,17.7-1.6c4.1-0.7,6.8-4.6,6-8.7c-0.7-4.1-4.6-6.8-8.7-6
			c-27.1,4.9-54.8-3.7-74.2-23.2c-15.8-15.8-24.5-36.8-24.5-59.2c0-22.4,8.7-43.4,24.5-59.2c32.6-32.6,85.7-32.6,118.4,0
			c32.6,32.6,32.6,85.7,0,118.4c-4.8,4.8-10.1,8.9-15.7,12.4c-3.5,2.2-4.7,6.8-2.5,10.3c2.2,3.5,6.8,4.7,10.3,2.5
			c6.7-4.1,13-9,18.6-14.6c38.5-38.5,38.5-101.1,0-139.6S371-9.6,332.5,28.9c-18.6,18.6-28.9,43.4-28.9,69.8c0,12.7,2.4,25,6.9,36.5
			c-18.2,10.4-38.9,15.9-60,15.9c0,0,0,0-0.1,0s0,0-0.1,0c-21.2,0-41.8-5.5-60-16c4.5-11.3,7-23.6,7-36.5C197.4,44.3,153.1,0,98.7,0
			S0,44.3,0,98.7s44.3,98.7,98.7,98.7c18.9,0,36.5-5.3,51.5-14.6c15.9,21,24.6,46.7,24.6,73.2c0,6.6-0.5,13.3-1.6,19.7
			c-0.7,4.1,2.1,7.9,6.2,8.6c0.4,0.1,0.8,0.1,1.2,0.1c3.6,0,6.8-2.6,7.4-6.3c1.2-7.3,1.8-14.7,1.8-22.2c0-29.6-9.7-58.5-27.4-82
			c8.5-7.2,15.7-15.8,21.4-25.4c18.2,10.2,38.4,16.1,59.2,17.2v49.4h-7.7c-4.1,0-7.5,3.4-7.5,7.5v61.1c0,4.1,3.4,7.5,7.5,7.5h7.7
			v54.7c-20.8,1.1-41.1,7-59.2,17.2c-4.2-7.2-9.3-13.8-15.3-19.8c-2-2-4-3.8-6.1-5.6c6.7-8.9,12.3-18.6,16.7-28.9
			c1.6-3.8-0.2-8.2-4-9.8c-3.8-1.6-8.2,0.2-9.8,4c-3.9,9.2-9,17.9-15,25.9c-15.4-9.4-33.1-14.5-51.5-14.5
			c-26.4,0-51.1,10.3-69.8,28.9c-38.5,38.5-38.5,101.1,0,139.6C48.1,502.3,73.4,512,98.7,512s50.5-9.6,69.8-28.9
			c2.9-2.9,2.9-7.7,0-10.6c-2.9-2.9-7.7-2.9-10.6,0c-32.6,32.6-85.7,32.6-118.3,0c-32.6-32.6-32.6-85.7,0-118.4
			c15.8-15.8,36.8-24.5,59.2-24.5c22.4,0,43.4,8.7,59.2,24.5c24.6,24.6,31.4,61.1,17.4,92.9c-1.7,3.8,0.1,8.2,3.8,9.9
			c3.8,1.7,8.2-0.1,9.9-3.8c7.9-18,10.3-37.8,6.8-57.2c-1.2-6.6-3-12.9-5.4-19c18.2-10.4,38.9-15.9,60-16c0,0,0,0,0.1,0
			c0,0,0,0,0.1,0c21.2,0,41.8,5.5,60,16c-4.5,11.3-7,23.6-7,36.5c0,54.4,44.3,98.7,98.7,98.7s98.7-44.3,98.7-98.7
			S456.7,314.6,402.3,314.6z M98.7,182.4c-46.1,0-83.7-37.5-83.7-83.7S52.5,15,98.7,15s83.7,37.5,83.7,83.7S144.8,182.4,98.7,182.4z
			 M242.8,276.4v-46.1h15.4v46.1H242.8z M258,346.1v-54.7h7.7c4.1,0,7.5-3.4,7.5-7.5v-61.1c0-4.1-3.4-7.5-7.5-7.5H258v-49.4
			c20.8-1.1,41-7,59.2-17.2c4.2,7.1,9.3,13.8,15.4,19.8c2,2,4,3.8,6.1,5.6c-17.7,23.5-27.4,52.4-27.4,81.9c0,29.6,9.7,58.5,27.4,82
			c-8.5,7.2-15.7,15.8-21.4,25.4C299.1,353.1,278.9,347.3,258,346.1z M402.3,497c-46.1,0-83.7-37.5-83.7-83.7s37.5-83.7,83.7-83.7
			s83.7,37.5,83.7,83.7S448.5,497,402.3,497z"/>
	</g>
</g>
<g>
	<g>
		<path d="M409.8,383.5v-37.2c0-4.1-3.4-7.5-7.5-7.5s-7.5,3.4-7.5,7.5v37.2c-13.3,3.4-23.2,15.4-23.2,29.8
			c0,14.3,9.9,26.4,23.2,29.8v39.1c0,4.1,3.4,7.5,7.5,7.5s7.5-3.4,7.5-7.5v-39.1c13.3-3.4,23.2-15.4,23.2-29.8
			S423.1,386.9,409.8,383.5z M402.3,429c-8.7,0-15.7-7-15.7-15.7c0-8.7,7-15.7,15.7-15.7c8.7,0,15.7,7,15.7,15.7
			C418,422,411,429,402.3,429z"/>
	</g>
</g>
<g>
	<g>
		<path d="M151.3,360.7c-2.9-2.9-7.7-2.9-10.6,0L114.4,387c-4.7-2.8-10.1-4.3-15.8-4.3c-8.2,0-15.9,3.2-21.7,9
			c-5.8,5.8-9,13.5-9,21.7c0,5.6,1.5,11,4.3,15.8l-27.6,27.6c-2.9,2.9-2.9,7.7,0,10.6c1.5,1.5,3.4,2.2,5.3,2.2s3.8-0.7,5.3-2.2
			l27.6-27.6c4.8,2.9,10.3,4.3,15.7,4.3c7.9,0,15.7-3,21.7-9c5.8-5.8,9-13.5,9-21.7c0-5.6-1.5-11-4.3-15.8l26.3-26.3
			C154.2,368.4,154.2,363.6,151.3,360.7z M109.8,424.4c-6.1,6.1-16.1,6.1-22.2,0c-6.1-6.1-6.1-16.1,0-22.2c3.1-3.1,7.1-4.6,11.1-4.6
			c4,0,8,1.5,11.1,4.6c3,3,4.6,6.9,4.6,11.1C114.4,417.5,112.7,421.4,109.8,424.4z"/>
	</g>
</g>
<g>
	<g>
		<path d="M454.9,140.7l-26.3-26.3c2.8-4.7,4.3-10.1,4.3-15.8c0-8.2-3.2-15.9-9-21.7c-10.1-10.1-25.7-11.7-37.4-4.6l-27.6-27.6
			c-2.9-2.9-7.7-2.9-10.6,0c-2.9,2.9-2.9,7.7,0,10.6L376,82.9c-2.8,4.7-4.3,10.1-4.3,15.8c0,8.2,3.2,15.9,9,21.7
			c5.8,5.8,13.5,9,21.7,9c5.6,0,11-1.5,15.8-4.3l26.3,26.3c1.5,1.5,3.4,2.2,5.3,2.2s3.8-0.7,5.3-2.2
			C457.9,148.4,457.9,143.6,454.9,140.7z M413.4,109.8c-6.1,6.1-16.1,6.1-22.2,0c-3-3-4.6-6.9-4.6-11.1s1.6-8.1,4.6-11.1
			c3.1-3.1,7.1-4.6,11.1-4.6c4,0,8,1.5,11.1,4.6C419.5,93.7,419.5,103.7,413.4,109.8z"/>
	</g>
</g>
<g>
	<g>
		<path d="M106.2,68.9V31.8c0-4.1-3.4-7.5-7.5-7.5s-7.5,3.4-7.5,7.5v37.2C77.9,72.3,68,84.3,68,98.7s9.9,26.4,23.2,29.8v39.1
			c0,4.1,3.4,7.5,7.5,7.5s7.5-3.4,7.5-7.5v-39.1c13.3-3.4,23.2-15.4,23.2-29.8S119.5,72.3,106.2,68.9z M98.7,114.4
			c-8.7,0-15.7-7-15.7-15.7S90,83,98.7,83s15.7,7,15.7,15.7S107.3,114.4,98.7,114.4z"/>
	</g>
</g>
<g>
	<g>
		<path d="M209.5,216.4H209c-4.1,0-7.5,3.4-7.5,7.5s3.4,7.5,7.5,7.5h0.5c4.1,0,7.5-3.4,7.5-7.5S213.6,216.4,209.5,216.4z"/>
	</g>
</g>
<g>
	<g>
		<path d="M209.5,242.7H209c-4.1,0-7.5,3.4-7.5,7.5s3.4,7.5,7.5,7.5h0.5c4.1,0,7.5-3.4,7.5-7.5C217,246,213.6,242.7,209.5,242.7z"/>
	</g>
</g>
</svg>
