<?xml version="1.0" encoding="utf-8"?>
<!-- Generator: Adobe Illustrator 23.1.1, SVG Export Plug-In . SVG Version: 6.00 Build 0)  -->
<svg version="1.1" id="Capa_1" xmlns="http://www.w3.org/2000/svg" xmlns:xlink="http://www.w3.org/1999/xlink" x="0px" y="0px"
	 viewBox="0 0 512 512" style="enable-background:new 0 0 512 512;" xml:space="preserve">
<style type="text/css">
	.st0{fill:#7AC7DE;}
</style>
<g>
	<g>
		<path class="st0" d="M332.6,249.3c3,3,8,3,11.1,0L508.9,84.1c3.1-3.1,3.1-8,0-11.1L438.1,2.3c-3-3-8-3-11.1,0L261.8,167.4
			c-3,3-3,8.1,0,11.1l6.3,6.3l-18.4,18.4l-24.3-24.3l24-24c3.1-3.1,3.1-8,0-11.1l-94.4-94.4c-3-3-8.1-3-11.1,0l-94.4,94.4
			c-3.1,3.1-3.1,8,0,11.1l94.4,94.4c3,3,8.1,3,11.1,0l24-24l24.3,24.3l-18.4,18.4l-6.3-6.3c-3.1-3.1-8-3.1-11.1,0L2.3,427
			c-3,3-3,8,0,11.1l70.8,70.8c3,3,8,3,11.1,0l165.2-165.2c3-3,3-8,0-11.1l-6.3-6.3l18.4-18.4l21.8,21.8c-16.3,29.9-19,66.1-5.9,98.8
			c2,5.1,8.9,6.5,12.8,2.6l43.1-43.1l67.3,22.4c6,2,11.9-3.9,9.9-9.9L388,333.3l43.1-43.1c3.9-3.9,2.5-10.7-2.6-12.8
			c-32.7-13.1-68.9-10.4-98.8,5.9l-21.8-21.8l18.4-18.4L332.6,249.3z M338.2,232.7l-6.3-6.3c0,0,0,0,0,0s0,0,0,0l-18.1-18.1
			l30.2-30.2l24.3,24.3L338.2,232.7z M379.5,191.4l-24.3-24.3l30.2-30.2l24.3,24.3L379.5,191.4z M420.7,150.1l-24.3-24.3l30.2-30.2
			l24.3,24.3L420.7,150.1z M492.3,78.6L462,108.8l-24.3-24.3l30.2-30.2L492.3,78.6z M432.5,18.9l24.3,24.3l-30.2,30.2l-24.3-24.3
			L432.5,18.9z M391.2,60.1l24.3,24.3l-30.2,30.2L361,90.4L391.2,60.1z M350,101.4l24.3,24.3L344.1,156l-24.3-24.3L350,101.4z
			 M308.7,142.7l24.3,24.3l-30.2,30.2l-18.1-18.1c0,0,0,0,0,0c0,0,0,0,0,0l-6.3-6.3L308.7,142.7z M95.5,178.9l46.6-46.6
			c3.1-3.1,3.1-8,0-11.1c-3.1-3.1-8-3.1-11.1,0l-46.6,46.6L66,149.4L149.4,66l18.4,18.4l-12.2,12.2c-2.8,2.8-3,7.6-0.4,10.6
			c2.9,3.4,8.3,3.6,11.5,0.4l12.2-12.2l24.3,24.3l-83.3,83.3L95.5,178.9z M149.4,232.7l-18.4-18.4l83.3-83.3l18.4,18.4L149.4,232.7z
			 M173,278.4l24.3,24.3L167.1,333l-24.3-24.3L173,278.4z M131.7,319.7l24.3,24.3l-30.2,30.2L101.4,350L131.7,319.7z M90.4,361
			l24.3,24.3l-30.2,30.2l-24.3-24.3L90.4,361z M18.9,432.5l30.2-30.2l24.3,24.3l-30.2,30.2L18.9,432.5z M78.6,492.3l-24.3-24.3
			l30.2-30.2l24.3,24.3L78.6,492.3z M119.9,451l-24.3-24.3l30.2-30.2l24.3,24.3L119.9,451z M161.2,409.7l-24.3-24.3l30.2-30.2
			l24.3,24.3L161.2,409.7z M202.5,368.4l-24.3-24.3l30.2-30.2l24.3,24.3L202.5,368.4z M232,315.3l-18.1-18.1c0,0,0,0,0,0s0,0,0,0
			l-18.1-18.1l18.4-18.4l36.1,36.1L232,315.3z M390.7,390.7l-45.1-15l30-30L390.7,390.7z M385.4,284.7c8.6,0,17.3,1.1,25.8,3.4
			L288,411.1c-9.1-34.4,0.6-71.3,26.1-96.9C333.5,294.9,359.2,284.7,385.4,284.7z M316.2,291.9c-4.6,3.4-9,7.2-13.1,11.3
			c-4.1,4.1-7.9,8.5-11.3,13.1L189.9,214.3l24.3-24.3L316.2,291.9z M296.9,250.4l-36.1-36.1l18.4-18.4l36.1,36.1L296.9,250.4z"/>
	</g>
</g>
<g>
	<g>
		<path class="st0" d="M504.2,412.9c-4.3,0-7.8,3.5-7.8,7.8c0,20.2-7.9,39.2-22.1,53.5c-14.3,14.3-33.3,22.1-53.5,22.1
			c-4.3,0-7.8,3.5-7.8,7.8c0,4.3,3.5,7.8,7.8,7.8c24.4,0,47.3-9.5,64.5-26.7c17.2-17.2,26.7-40.2,26.7-64.5
			C512,416.4,508.5,412.9,504.2,412.9z"/>
	</g>
</g>
<g>
	<g>
		<path class="st0" d="M470.8,412.9c-4.3,0-7.8,3.5-7.8,7.8c0,11.3-4.4,21.9-12.4,29.9S432,463,420.7,463c-4.3,0-7.8,3.5-7.8,7.8
			c0,4.3,3.5,7.8,7.8,7.8c15.5,0,30-6,40.9-17c10.9-10.9,17-25.5,17-40.9C478.6,416.4,475.1,412.9,470.8,412.9z"/>
	</g>
</g>
<g>
	<g>
		<path class="st0" d="M437.4,412.9c-4.3,0-7.8,3.5-7.8,7.8c0,2.4-0.9,4.6-2.6,6.3c-1.7,1.7-3.9,2.6-6.3,2.6c-4.3,0-7.8,3.5-7.8,7.8
			c0,4.3,3.5,7.8,7.8,7.8c6.5,0,12.7-2.5,17.3-7.2s7.2-10.8,7.2-17.3C445.3,416.4,441.8,412.9,437.4,412.9z"/>
	</g>
</g>
</svg>
