<!-- Generator: Adobe Illustrator 24.1.2, SVG Export Plug-In  -->
<svg version="1.1" xmlns="http://www.w3.org/2000/svg" xmlns:xlink="http://www.w3.org/1999/xlink" x="0px" y="0px" width="551.7px"
	 height="359.4px" viewBox="0 0 551.7 359.4" style="overflow:visible;enable-background:new 0 0 551.7 359.4;"
	 xml:space="preserve">
<style type="text/css">
	.st0{clip-path:url(#SVGID_2_);fill:url(#SVGID_3_);}
	.st1{fill:#28212D;}
	.st2{fill:#FFFFFF;}
	.st3{clip-path:url(#SVGID_5_);fill:url(#SVGID_6_);}
	.st4{clip-path:url(#SVGID_8_);fill:url(#SVGID_9_);}
	.st5{clip-path:url(#SVGID_11_);fill:url(#SVGID_12_);}
	.st6{clip-path:url(#SVGID_14_);fill:url(#SVGID_15_);}
	.st7{clip-path:url(#SVGID_17_);fill:url(#SVGID_18_);}
	.st8{clip-path:url(#SVGID_20_);fill:url(#SVGID_21_);}
	.st9{clip-path:url(#SVGID_23_);fill:url(#SVGID_24_);}
	.st10{clip-path:url(#SVGID_26_);fill:url(#SVGID_27_);}
	.st11{clip-path:url(#SVGID_29_);fill:url(#SVGID_30_);}
	.st12{clip-path:url(#SVGID_32_);fill:url(#SVGID_33_);}
	.st13{clip-path:url(#SVGID_35_);fill:url(#SVGID_36_);}
	.st14{clip-path:url(#SVGID_38_);fill:url(#SVGID_39_);}
	.st15{clip-path:url(#SVGID_41_);fill:url(#SVGID_42_);}
	.st16{clip-path:url(#SVGID_44_);fill:url(#SVGID_45_);}
	.st17{clip-path:url(#SVGID_47_);fill:url(#SVGID_48_);}
	.st18{clip-path:url(#SVGID_50_);fill:url(#SVGID_51_);}
	.st19{clip-path:url(#SVGID_53_);fill:url(#SVGID_54_);}
</style>
<defs>
</defs>
<g>
	<g>
		<defs>
			<rect id="SVGID_1_" x="321.4" y="296.3" width="216.4" height="30.1"/>
		</defs>
		<clipPath id="SVGID_2_">
			<use xlink:href="#SVGID_1_"  style="overflow:visible;"/>
		</clipPath>
		
			<linearGradient id="SVGID_3_" gradientUnits="userSpaceOnUse" x1="137.3576" y1="-292.1903" x2="138.3576" y2="-292.1903" gradientTransform="matrix(392.3984 61.1875 -61.1875 392.3984 -71523.1719 106534.4688)">
			<stop  offset="0" style="stop-color:#98D4E6"/>
			<stop  offset="0.1308" style="stop-color:#90D0E5"/>
			<stop  offset="0.3184" style="stop-color:#7AC2E1"/>
			<stop  offset="0.5402" style="stop-color:#4DADDA"/>
			<stop  offset="0.786" style="stop-color:#0091CF"/>
			<stop  offset="1" style="stop-color:#0079C2"/>
		</linearGradient>
		<polygon class="st0" points="326.6,263.4 542.4,297 532.7,359.4 316.8,325.8 		"/>
	</g>
</g>
<g>
	<path class="st1" d="M233.6,193.1c0,1.3-0.2,2.4-0.7,3.5s-1.2,2-2,2.8s-1.8,1.4-3,1.9s-2.4,0.7-3.6,0.7c-2.6,0-4.9-0.9-6.7-2.6
		c-1.8-1.8-2.7-3.9-2.7-6.3c0-1.2,0.2-2.3,0.7-3.4c0.5-1.1,1.1-2,2-2.8s1.9-1.4,3-1.9s2.4-0.7,3.7-0.7s2.5,0.2,3.6,0.7
		c1.2,0.5,2.2,1.1,3,1.9c0.8,0.8,1.5,1.7,2,2.8C233.4,190.6,233.6,191.8,233.6,193.1 M216.2,208.9h16.3v49.5h-16.3V208.9z"/>
	<path class="st1" d="M274.5,223.5c-1.3-1.3-2.9-2.3-4.7-3.2c-1.8-0.9-3.7-1.3-5.7-1.3c-1.5,0-2.9,0.3-4.2,0.9
		c-1.3,0.6-1.9,1.6-1.9,3.1c0,1.4,0.7,2.4,2.1,3s3.7,1.3,6.9,2c1.9,0.4,3.7,1,5.6,1.7s3.6,1.7,5.1,2.9s2.7,2.7,3.7,4.4
		c0.9,1.7,1.4,3.8,1.4,6.2c0,3.1-0.6,5.7-1.9,7.9s-2.9,3.9-4.9,5.2c-2,1.3-4.3,2.3-6.8,2.9s-5,0.9-7.6,0.9c-4,0-8-0.6-11.9-1.9
		s-7.1-3.2-9.7-5.7l9.1-9.6c1.5,1.6,3.2,2.9,5.4,4c2.1,1.1,4.4,1.6,6.8,1.6c1.3,0,2.6-0.3,3.9-0.9c1.3-0.6,1.9-1.7,1.9-3.3
		c0-1.5-0.8-2.6-2.4-3.4c-1.6-0.7-4.1-1.5-7.5-2.3c-1.7-0.4-3.4-0.9-5.2-1.6c-1.7-0.7-3.3-1.6-4.6-2.7c-1.4-1.1-2.5-2.5-3.3-4.2
		c-0.9-1.7-1.3-3.6-1.3-6c0-3,0.6-5.5,1.9-7.6c1.3-2.1,2.9-3.8,4.9-5.1s4.2-2.3,6.6-2.9c2.4-0.6,4.8-0.9,7.2-0.9
		c3.7,0,7.3,0.6,10.9,1.7c3.5,1.2,6.5,2.9,9,5.2L274.5,223.5z"/>
	<path class="st1" d="M320.2,265.8c-1,2.6-2.1,4.9-3.3,6.9c-1.2,2-2.7,3.7-4.4,5.2c-1.7,1.4-3.7,2.5-6,3.2s-5,1.1-8.1,1.1
		c-1.5,0-3.1-0.1-4.7-0.3c-1.6-0.2-3-0.5-4.2-0.8l1.8-13.7c0.8,0.3,1.7,0.5,2.6,0.6c1,0.2,1.8,0.2,2.6,0.2c2.5,0,4.3-0.6,5.5-1.7
		c1.1-1.2,2.1-2.8,2.9-4.9l1.6-4.1l-20.7-48.7h18.1l11,31.8h0.3l9.8-31.8h17.3L320.2,265.8z"/>
	<path class="st1" d="M411.8,258.3v-27c0-1.4-0.1-2.7-0.3-4c-0.2-1.3-0.6-2.4-1.1-3.3c-0.5-0.9-1.2-1.7-2.1-2.2
		c-0.9-0.6-2.1-0.8-3.5-0.8s-2.6,0.3-3.6,0.9c-1,0.6-1.9,1.4-2.6,2.4s-1.2,2.1-1.5,3.4c-0.3,1.3-0.5,2.6-0.5,4v26.7h-16.3v-28.2
		c0-2.8-0.6-5.1-1.7-6.8s-2.9-2.5-5.4-2.5c-2.6,0-4.6,1-6,3.1s-2.1,4.6-2.1,7.6v26.8h-16.4v-49.5h15.8v6.9h0.2
		c0.6-1.1,1.3-2.1,2.2-3.1c0.9-1,2-1.9,3.2-2.6c1.3-0.8,2.7-1.4,4.2-1.8c1.6-0.5,3.3-0.7,5.1-0.7c3.6,0,6.6,0.7,9.1,2.2
		s4.4,3.5,5.8,6.3c1.7-2.6,3.8-4.6,6.4-6.2c2.6-1.5,5.7-2.3,9.4-2.3c3.4,0,6.2,0.6,8.5,1.8s4.1,2.8,5.5,4.8s2.4,4.1,3,6.6
		c0.6,2.4,0.9,4.8,0.9,7.1v30.6h-16.2V258.3z"/>
	<path class="st1" d="M439.7,215.6c2.9-2.8,6.3-4.9,10.2-6.3s7.8-2.1,11.9-2.1c4.2,0,7.7,0.5,10.6,1.5s5.2,2.6,7,4.8
		s3.1,4.9,3.9,8.1c0.8,3.3,1.2,7.2,1.2,11.7v24.9h-14.9v-5.3h-0.3c-1.3,2.1-3.2,3.6-5.7,4.8c-2.6,1.1-5.3,1.7-8.3,1.7
		c-2,0-4-0.3-6.2-0.8c-2.1-0.5-4.1-1.4-5.8-2.6c-1.8-1.2-3.2-2.8-4.3-4.8c-1.1-2-1.7-4.4-1.7-7.4c0-3.6,1-6.5,2.9-8.6
		c2-2.2,4.5-3.9,7.5-5.1s6.5-2,10.3-2.4s7.5-0.6,11-0.6v-0.8c0-2.5-0.9-4.3-2.6-5.4c-1.7-1.2-3.8-1.7-6.4-1.7
		c-2.3,0-4.6,0.5-6.7,1.5c-2.2,1-4,2.2-5.5,3.6L439.7,215.6z M469.6,236.8h-2.1c-1.8,0-3.6,0.1-5.4,0.2c-1.8,0.2-3.4,0.5-4.9,0.9
		c-1.4,0.5-2.6,1.1-3.5,2s-1.4,2.1-1.4,3.5c0,0.9,0.2,1.7,0.6,2.4s1,1.2,1.6,1.6c0.7,0.4,1.4,0.7,2.3,0.8c0.9,0.2,1.7,0.2,2.5,0.2
		c3.3,0,5.8-0.9,7.6-2.7c1.8-1.8,2.6-4.3,2.6-7.4L469.6,236.8L469.6,236.8z"/>
	<path class="st1" d="M551.7,233.4c0,3.4-0.5,6.8-1.6,9.9c-1.1,3.2-2.6,6-4.6,8.4s-4.5,4.4-7.4,5.8c-2.9,1.5-6.2,2.2-9.9,2.2
		c-3,0-5.9-0.6-8.6-1.8c-2.7-1.2-4.8-2.9-6.4-5H513v29.3h-16.3v-73.3h15.5v6.1h0.3c1.5-2,3.6-3.7,6.3-5.2s5.8-2.2,9.5-2.2
		c3.6,0,6.8,0.7,9.7,2.1c2.9,1.4,5.4,3.3,7.4,5.7s3.6,5.2,4.7,8.3C551.1,226.7,551.7,230,551.7,233.4 M535.9,233.4
		c0-1.6-0.2-3.1-0.7-4.7c-0.5-1.5-1.2-2.9-2.2-4c-1-1.2-2.2-2.1-3.6-2.8c-1.5-0.7-3.1-1.1-5.1-1.1c-1.9,0-3.5,0.4-5,1.1
		s-2.7,1.7-3.7,2.9s-1.8,2.6-2.4,4.1c-0.6,1.5-0.8,3.1-0.8,4.7c0,1.6,0.3,3.1,0.8,4.7c0.6,1.5,1.4,2.9,2.4,4.1
		c1,1.2,2.3,2.2,3.7,2.9c1.5,0.7,3.1,1.1,5,1.1s3.6-0.4,5.1-1.1c1.5-0.7,2.7-1.7,3.6-2.9c1-1.2,1.7-2.6,2.2-4.1
		S535.9,235,535.9,233.4"/>
	<path class="st2" d="M340.6,317.3c-0.5,0.8-1.1,1.3-1.9,1.7s-1.7,0.6-2.6,0.6c-1,0-1.8-0.2-2.6-0.5c-0.8-0.3-1.4-0.8-2-1.4
		c-0.5-0.6-1-1.3-1.3-2.1c-0.3-0.8-0.4-1.7-0.4-2.6s0.1-1.8,0.4-2.6c0.3-0.8,0.7-1.5,1.3-2.1c0.6-0.6,1.2-1.1,2-1.4s1.6-0.5,2.6-0.5
		s1.9,0.2,2.7,0.6c0.8,0.4,1.4,1,1.8,1.6h0.1v-9.3h2.5v20h-2.4L340.6,317.3L340.6,317.3z M332.4,313c0,0.6,0.1,1.1,0.3,1.7
		c0.2,0.5,0.4,1,0.8,1.4s0.8,0.8,1.3,1c0.5,0.3,1.1,0.4,1.8,0.4c0.6,0,1.2-0.1,1.7-0.4c0.5-0.2,1-0.6,1.3-1c0.4-0.4,0.7-0.9,0.9-1.4
		c0.2-0.5,0.3-1.1,0.3-1.7s-0.1-1.2-0.3-1.7c-0.2-0.5-0.5-1-0.9-1.4s-0.8-0.8-1.3-1s-1.1-0.4-1.7-0.4c-0.7,0-1.3,0.1-1.8,0.4
		c-0.5,0.2-0.9,0.6-1.3,1s-0.6,0.9-0.8,1.4C332.5,311.9,332.4,312.4,332.4,313"/>
	<path class="st2" d="M355.2,311.2c0-0.9-0.3-1.6-0.8-2.1c-0.6-0.4-1.3-0.7-2.2-0.7c-0.7,0-1.4,0.1-2,0.4s-1.1,0.6-1.6,1l-1.3-1.6
		c0.6-0.6,1.4-1,2.3-1.4c0.9-0.3,1.8-0.5,2.9-0.5c0.9,0,1.7,0.1,2.3,0.4c0.7,0.3,1.2,0.6,1.6,1s0.7,1,1,1.6c0.2,0.6,0.3,1.2,0.3,1.9
		v5.5c0,0.4,0,0.9,0,1.3c0,0.5,0.1,0.9,0.1,1.1h-2.2c-0.1-0.6-0.2-1.2-0.2-1.8h-0.1c-0.5,0.7-1,1.2-1.7,1.6s-1.5,0.6-2.5,0.6
		c-0.5,0-1-0.1-1.5-0.2s-1-0.3-1.5-0.6c-0.4-0.3-0.8-0.7-1.1-1.2c-0.3-0.5-0.4-1.1-0.4-1.8c0-0.9,0.3-1.7,0.8-2.3
		c0.5-0.6,1.2-1,2-1.3s1.8-0.5,2.8-0.6s2.1-0.1,3.1-0.1L355.2,311.2L355.2,311.2z M354.6,313.3c-0.6,0-1.3,0-1.9,0.1
		c-0.7,0.1-1.3,0.2-1.8,0.3c-0.5,0.2-1,0.4-1.3,0.7c-0.4,0.3-0.5,0.7-0.5,1.3c0,0.4,0.1,0.7,0.2,0.9c0.1,0.2,0.3,0.4,0.6,0.6
		c0.2,0.2,0.5,0.3,0.8,0.3c0.3,0.1,0.6,0.1,0.9,0.1c1.2,0,2.1-0.3,2.7-1s0.9-1.6,0.9-2.6v-0.7L354.6,313.3L354.6,313.3z"/>
	<path class="st2" d="M367.6,308.8h-3.3v6.5c0,0.8,0.1,1.3,0.4,1.6c0.3,0.3,0.7,0.5,1.3,0.5c0.2,0,0.5,0,0.7-0.1
		c0.3,0,0.5-0.1,0.7-0.2l0.1,2c-0.3,0.1-0.6,0.2-1,0.3c-0.4,0.1-0.7,0.1-1.1,0.1c-1.2,0-2.1-0.3-2.7-1s-0.9-1.6-0.9-2.9v-6.8h-2.4
		v-2h2.4v-3.6h2.5v3.6h3.3V308.8z"/>
	<path class="st2" d="M377.9,311.2c0-0.9-0.3-1.6-0.8-2.1c-0.6-0.4-1.3-0.7-2.2-0.7c-0.7,0-1.4,0.1-2,0.4s-1.1,0.6-1.6,1l-1.3-1.6
		c0.6-0.6,1.4-1,2.3-1.4c0.9-0.3,1.8-0.5,2.9-0.5c0.9,0,1.7,0.1,2.3,0.4c0.7,0.3,1.2,0.6,1.6,1s0.7,1,1,1.6c0.2,0.6,0.3,1.2,0.3,1.9
		v5.5c0,0.4,0,0.9,0,1.3c0,0.5,0.1,0.9,0.1,1.1h-2.2c-0.1-0.6-0.2-1.2-0.2-1.8H378c-0.5,0.7-1,1.2-1.7,1.6s-1.5,0.6-2.5,0.6
		c-0.5,0-1-0.1-1.5-0.2s-1-0.3-1.5-0.6c-0.4-0.3-0.8-0.7-1.1-1.2c-0.3-0.5-0.4-1.1-0.4-1.8c0-0.9,0.3-1.7,0.8-2.3
		c0.5-0.6,1.2-1,2-1.3s1.8-0.5,2.8-0.6s2.1-0.1,3.1-0.1L377.9,311.2L377.9,311.2z M377.3,313.3c-0.6,0-1.3,0-1.9,0.1
		c-0.7,0.1-1.3,0.2-1.8,0.3c-0.5,0.2-1,0.4-1.3,0.7c-0.4,0.3-0.5,0.7-0.5,1.3c0,0.4,0.1,0.7,0.2,0.9c0.1,0.2,0.3,0.4,0.6,0.6
		c0.2,0.2,0.5,0.3,0.8,0.3c0.3,0.1,0.6,0.1,0.9,0.1c1.2,0,2.1-0.3,2.7-1s0.9-1.6,0.9-2.6v-0.7L377.3,313.3L377.3,313.3z"/>
	<path class="st2" d="M402.7,312.9v0.4c0,0.1,0,0.3,0,0.4h-10c0,0.5,0.1,1,0.4,1.5c0.2,0.5,0.5,0.9,0.9,1.2c0.4,0.3,0.8,0.6,1.3,0.8
		c0.5,0.2,1,0.3,1.5,0.3c0.8,0,1.6-0.2,2.2-0.6s1.1-0.8,1.5-1.3l1.7,1.4c-0.7,0.9-1.5,1.5-2.4,2c-0.9,0.4-1.9,0.6-3,0.6
		c-0.9,0-1.8-0.2-2.6-0.5c-0.8-0.3-1.5-0.8-2.1-1.3c-0.6-0.6-1-1.3-1.4-2.1c-0.3-0.8-0.5-1.7-0.5-2.7s0.2-1.9,0.5-2.7
		c0.3-0.8,0.8-1.5,1.4-2.1s1.3-1,2.1-1.4c0.8-0.3,1.6-0.5,2.6-0.5s1.8,0.2,2.5,0.4c0.7,0.3,1.4,0.7,1.9,1.3c0.5,0.6,0.9,1.2,1.2,2
		C402.6,311,402.7,311.9,402.7,312.9 M400.2,311.9c0-0.5-0.1-1-0.3-1.4c-0.1-0.4-0.4-0.8-0.7-1.1c-0.3-0.3-0.7-0.6-1.1-0.8
		c-0.4-0.2-0.9-0.3-1.5-0.3c-0.5,0-1,0.1-1.5,0.3c-0.5,0.2-0.9,0.4-1.2,0.8c-0.3,0.3-0.6,0.7-0.8,1.1c-0.2,0.4-0.3,0.9-0.4,1.4
		H400.2z"/>
	<polygon class="st2" points="412,319.3 409.4,319.3 404.3,306.8 407,306.8 410.7,316.6 410.7,316.6 414.4,306.8 417.1,306.8 	"/>
	<path class="st2" d="M431.2,312.9v0.4c0,0.1,0,0.3,0,0.4h-10c0,0.5,0.1,1,0.4,1.5c0.2,0.5,0.5,0.9,0.9,1.2c0.4,0.3,0.8,0.6,1.3,0.8
		c0.5,0.2,1,0.3,1.5,0.3c0.8,0,1.6-0.2,2.2-0.6s1.1-0.8,1.5-1.3l1.7,1.4c-0.7,0.9-1.5,1.5-2.4,2c-0.9,0.4-1.9,0.6-3,0.6
		c-1,0-1.8-0.2-2.6-0.5c-0.8-0.3-1.5-0.8-2.1-1.3c-0.6-0.6-1-1.3-1.4-2.1c-0.3-0.8-0.5-1.7-0.5-2.7s0.2-1.9,0.5-2.7
		c0.3-0.8,0.8-1.5,1.4-2.1s1.3-1,2.1-1.4c0.8-0.3,1.6-0.5,2.6-0.5s1.8,0.2,2.5,0.4c0.7,0.3,1.4,0.7,1.9,1.3c0.5,0.6,0.9,1.2,1.2,2
		C431,311,431.2,311.9,431.2,312.9 M428.6,311.9c0-0.5-0.1-1-0.3-1.4s-0.4-0.8-0.7-1.1c-0.3-0.3-0.7-0.6-1.1-0.8
		c-0.4-0.2-0.9-0.3-1.5-0.3c-0.5,0-1,0.1-1.5,0.3c-0.5,0.2-0.9,0.4-1.2,0.8c-0.3,0.3-0.6,0.7-0.8,1.1c-0.2,0.4-0.3,0.9-0.4,1.4
		H428.6z"/>
	<path class="st2" d="M434.6,308.2c0-0.5,0-1-0.1-1.4h2.4c0,0.3,0.1,0.7,0.1,1.1s0,0.8,0,1h0.1c0.4-0.7,0.9-1.3,1.5-1.8
		c0.7-0.5,1.4-0.7,2.3-0.7c0.4,0,0.7,0,1,0.1l-0.1,2.3c-0.4-0.1-0.7-0.1-1.1-0.1c-0.6,0-1.1,0.1-1.6,0.3c-0.4,0.2-0.8,0.5-1.1,0.9
		c-0.3,0.4-0.5,0.8-0.6,1.3s-0.2,1-0.2,1.5v6.6h-2.5v-9.8C434.6,309.1,434.6,308.7,434.6,308.2"/>
	<path class="st2" d="M448.9,316.6L448.9,316.6l3.5-9.8h2.6l-6.1,15.5c-0.2,0.5-0.4,1-0.7,1.4c-0.2,0.4-0.5,0.8-0.9,1.1
		c-0.3,0.3-0.7,0.5-1.2,0.7c-0.4,0.2-1,0.2-1.6,0.2c-0.3,0-0.5,0-0.8,0s-0.5-0.1-0.8-0.1l0.2-2.2c0.4,0.1,0.8,0.2,1.2,0.2
		c0.6,0,1.1-0.2,1.5-0.5c0.3-0.4,0.6-0.9,0.9-1.5l0.8-2.1l-5.4-12.5h2.8L448.9,316.6z"/>
	<polygon class="st2" points="458.4,306.8 461.2,316.3 461.2,316.3 464.2,306.8 466.8,306.8 469.9,316.3 469.9,316.3 472.8,306.8 
		475.4,306.8 471.2,319.3 468.6,319.3 465.6,309.9 465.5,309.9 462.4,319.3 459.8,319.3 455.7,306.8 	"/>
	<path class="st2" d="M480.4,308.7c0.3-0.6,0.8-1.1,1.5-1.6c0.7-0.4,1.5-0.7,2.4-0.7c0.8,0,1.5,0.1,2.1,0.4s1.1,0.6,1.5,1.1
		s0.7,1,0.9,1.6c0.2,0.6,0.3,1.3,0.3,2v7.8h-2.5v-6.9c0-0.5,0-1-0.1-1.5s-0.2-0.9-0.4-1.2s-0.5-0.6-0.9-0.8
		c-0.4-0.2-0.8-0.3-1.4-0.3c-1,0-1.8,0.4-2.4,1.1c-0.6,0.8-1,1.8-1,3v6.6h-2.5v-20h2.5V308.7L480.4,308.7z"/>
	<path class="st2" d="M505,312.9v0.4c0,0.1,0,0.3,0,0.4h-10c0,0.5,0.1,1,0.4,1.5c0.2,0.5,0.5,0.9,0.9,1.2c0.4,0.3,0.8,0.6,1.3,0.8
		c0.5,0.2,1,0.3,1.5,0.3c0.8,0,1.6-0.2,2.2-0.6s1.1-0.8,1.5-1.3l1.7,1.4c-0.7,0.9-1.5,1.5-2.4,2c-0.9,0.4-1.9,0.6-3,0.6
		c-1,0-1.8-0.2-2.6-0.5c-0.8-0.3-1.5-0.8-2.1-1.3c-0.6-0.6-1-1.3-1.4-2.1c-0.3-0.8-0.5-1.7-0.5-2.7s0.2-1.9,0.5-2.7
		c0.3-0.8,0.8-1.5,1.4-2.1s1.3-1,2.1-1.4c0.8-0.3,1.6-0.5,2.6-0.5s1.8,0.2,2.5,0.4c0.7,0.3,1.4,0.7,1.9,1.3c0.5,0.6,0.9,1.2,1.2,2
		C504.8,311,505,311.9,505,312.9 M502.4,311.9c0-0.5-0.1-1-0.3-1.4s-0.4-0.8-0.7-1.1c-0.3-0.3-0.7-0.6-1.1-0.8
		c-0.4-0.2-0.9-0.3-1.5-0.3c-0.5,0-1,0.1-1.5,0.3c-0.5,0.2-0.9,0.4-1.2,0.8c-0.3,0.3-0.6,0.7-0.8,1.1c-0.2,0.4-0.3,0.9-0.4,1.4
		H502.4z"/>
	<path class="st2" d="M508.4,308.2c0-0.5,0-1-0.1-1.4h2.4c0,0.3,0.1,0.7,0.1,1.1s0,0.8,0,1h0.1c0.4-0.7,0.9-1.3,1.5-1.8
		c0.7-0.5,1.4-0.7,2.3-0.7c0.4,0,0.7,0,1,0.1l-0.1,2.3c-0.4-0.1-0.7-0.1-1.1-0.1c-0.6,0-1.1,0.1-1.6,0.3c-0.4,0.2-0.8,0.5-1.1,0.9
		c-0.3,0.4-0.5,0.8-0.6,1.3s-0.2,1-0.2,1.5v6.6h-2.5v-9.8C508.4,309.1,508.4,308.7,508.4,308.2"/>
	<path class="st2" d="M529.2,312.9v0.4c0,0.1,0,0.3,0,0.4h-10c0,0.5,0.1,1,0.4,1.5c0.2,0.5,0.5,0.9,0.9,1.2c0.4,0.3,0.8,0.6,1.3,0.8
		c0.5,0.2,1,0.3,1.5,0.3c0.8,0,1.6-0.2,2.2-0.6c0.6-0.4,1.1-0.8,1.5-1.3l1.7,1.4c-0.7,0.9-1.5,1.5-2.4,2c-0.9,0.4-1.9,0.6-3,0.6
		c-1,0-1.8-0.2-2.6-0.5s-1.5-0.8-2.1-1.3c-0.6-0.6-1-1.3-1.4-2.1c-0.3-0.8-0.5-1.7-0.5-2.7s0.2-1.9,0.5-2.7c0.3-0.8,0.8-1.5,1.4-2.1
		c0.6-0.6,1.3-1,2.1-1.4c0.8-0.3,1.6-0.5,2.6-0.5s1.8,0.2,2.5,0.4c0.7,0.3,1.4,0.7,1.9,1.3c0.5,0.6,0.9,1.2,1.2,2
		C529,311,529.2,311.9,529.2,312.9 M526.6,311.9c0-0.5-0.1-1-0.3-1.4c-0.1-0.4-0.4-0.8-0.7-1.1c-0.3-0.3-0.7-0.6-1.1-0.8
		c-0.4-0.2-0.9-0.3-1.5-0.3c-0.5,0-1,0.1-1.5,0.3c-0.5,0.2-0.9,0.4-1.2,0.8c-0.3,0.3-0.6,0.7-0.8,1.1s-0.3,0.9-0.4,1.4H526.6z"/>
</g>
<g>
	<g>
		<defs>
			<path id="SVGID_4_" d="M113.4,42.3C100,48,88.6,57.5,80.6,69.3c-4,5.9-7.2,12.5-9.4,19.5c-2.2,7-3.4,14.5-3.4,22.2H99
				c0-6,1.2-11.7,3.4-16.9c3.3-7.8,8.8-14.4,15.7-19.1c3.5-2.3,7.3-4.2,11.3-5.5c4.1-1.3,8.4-1.9,12.9-2v-31
				C132.2,36.5,122.3,38.6,113.4,42.3"/>
		</defs>
		<clipPath id="SVGID_5_">
			<use xlink:href="#SVGID_4_"  style="overflow:visible;"/>
		</clipPath>
		
			<linearGradient id="SVGID_6_" gradientUnits="userSpaceOnUse" x1="138.2188" y1="-289.0475" x2="139.2188" y2="-289.0475" gradientTransform="matrix(-64.9564 80.0315 -80.0315 -64.9564 -14026.6377 -29791.8418)">
			<stop  offset="0" style="stop-color:#28212D"/>
			<stop  offset="0.1603" style="stop-color:#2A2231"/>
			<stop  offset="0.3933" style="stop-color:#2B2539"/>
			<stop  offset="0.6706" style="stop-color:#2B2946"/>
			<stop  offset="0.9799" style="stop-color:#242C58"/>
			<stop  offset="1" style="stop-color:#232D59"/>
		</linearGradient>
		<polygon class="st3" points="178.9,66.1 112.8,147.5 31.4,81.4 97.5,0 		"/>
	</g>
</g>
<g>
	<g>
		<defs>
			<path id="SVGID_7_" d="M142.4,36.5c0,0-43.4,3.8-43.4,74.6c0-6,1.2-11.7,3.4-16.9c3.3-7.8,8.8-14.4,15.7-19.1
				c3.5-2.3,7.3-4.2,11.3-5.5c4.1-1.3,8.4-1.9,12.9-2V36.5"/>
		</defs>
		<clipPath id="SVGID_8_">
			<use xlink:href="#SVGID_7_"  style="overflow:visible;"/>
		</clipPath>
		
			<linearGradient id="SVGID_9_" gradientUnits="userSpaceOnUse" x1="136.074" y1="-294.8048" x2="137.074" y2="-294.8048" gradientTransform="matrix(83.1128 -28.7607 28.7607 83.1128 -2748.8394 28502.8848)">
			<stop  offset="0" style="stop-color:#98D4E6"/>
			<stop  offset="0.1308" style="stop-color:#90D0E5"/>
			<stop  offset="0.3184" style="stop-color:#7AC2E1"/>
			<stop  offset="0.5402" style="stop-color:#4DADDA"/>
			<stop  offset="0.786" style="stop-color:#0091CF"/>
			<stop  offset="1" style="stop-color:#0079C2"/>
		</linearGradient>
		<polygon class="st4" points="76,44.5 137.8,23.1 165.5,103.1 103.6,124.5 		"/>
	</g>
</g>
<g>
	<g>
		<defs>
			<path id="SVGID_10_" d="M36.5,111c0,10.3,2.1,20.1,5.9,29c5.7,13.4,15.1,24.8,27,32.8c5.9,4,12.5,7.2,19.5,9.4s14.5,3.4,22.2,3.4
				v-31.1c-6,0-11.7-1.2-16.9-3.4c-7.8-3.3-14.4-8.8-19.1-15.7c-2.3-3.5-4.2-7.3-5.5-11.3c-1.3-4.1-1.9-8.4-1.9-12.9H36.5V111z"/>
		</defs>
		<clipPath id="SVGID_11_">
			<use xlink:href="#SVGID_10_"  style="overflow:visible;"/>
		</clipPath>
		
			<linearGradient id="SVGID_12_" gradientUnits="userSpaceOnUse" x1="135.2064" y1="-291.6505" x2="136.2064" y2="-291.6505" gradientTransform="matrix(80.0315 64.9564 -64.9564 80.0315 -29719.8418 14684.0908)">
			<stop  offset="0" style="stop-color:#28212D"/>
			<stop  offset="0.1603" style="stop-color:#2A2231"/>
			<stop  offset="0.3933" style="stop-color:#2B2539"/>
			<stop  offset="0.6706" style="stop-color:#2B2946"/>
			<stop  offset="0.9799" style="stop-color:#242C58"/>
			<stop  offset="1" style="stop-color:#232D59"/>
		</linearGradient>
		<polygon class="st5" points="66.1,74.6 147.5,140.6 81.4,222.1 0,156 		"/>
	</g>
</g>
<g>
	<g>
		<defs>
			<path id="SVGID_13_" d="M36.5,111c0,0,3.8,43.4,74.6,43.4c-6,0-11.7-1.2-16.9-3.4c-7.8-3.3-14.4-8.8-19.1-15.7
				c-2.3-3.5-4.2-7.3-5.5-11.3c-1.3-4.1-1.9-8.4-1.9-12.9L36.5,111L36.5,111z"/>
		</defs>
		<clipPath id="SVGID_14_">
			<use xlink:href="#SVGID_13_"  style="overflow:visible;"/>
		</clipPath>
		
			<linearGradient id="SVGID_15_" gradientUnits="userSpaceOnUse" x1="140.6828" y1="-294.0764" x2="141.6828" y2="-294.0764" gradientTransform="matrix(-28.7607 -83.1128 83.1128 -28.7607 28574.8848 3406.2905)">
			<stop  offset="0" style="stop-color:#98D4E6"/>
			<stop  offset="0.1308" style="stop-color:#90D0E5"/>
			<stop  offset="0.3184" style="stop-color:#7AC2E1"/>
			<stop  offset="0.5402" style="stop-color:#4DADDA"/>
			<stop  offset="0.786" style="stop-color:#0091CF"/>
			<stop  offset="1" style="stop-color:#0079C2"/>
		</linearGradient>
		<polygon class="st6" points="44.5,177.5 23.1,115.7 103.1,88 124.5,149.8 		"/>
	</g>
</g>
<g>
	<g>
		<defs>
			<path id="SVGID_16_" d="M154.5,142.2c0,6-1.2,11.7-3.4,16.9c-3.3,7.8-8.8,14.4-15.7,19.1c-3.5,2.3-7.3,4.2-11.3,5.5
				c-4.1,1.3-8.4,1.9-12.9,2v31.1c10.3,0,20.1-2.1,29-5.9c13.4-5.7,24.8-15.1,32.8-27c4-5.9,7.2-12.5,9.4-19.5s3.4-14.5,3.4-22.2
				L154.5,142.2L154.5,142.2z"/>
		</defs>
		<clipPath id="SVGID_17_">
			<use xlink:href="#SVGID_16_"  style="overflow:visible;"/>
		</clipPath>
		
			<linearGradient id="SVGID_18_" gradientUnits="userSpaceOnUse" x1="137.8094" y1="-294.663" x2="138.8094" y2="-294.663" gradientTransform="matrix(64.9564 -80.0315 80.0315 64.9564 14756.0908 30377.0547)">
			<stop  offset="0" style="stop-color:#28212D"/>
			<stop  offset="0.1603" style="stop-color:#2A2231"/>
			<stop  offset="0.3933" style="stop-color:#2B2539"/>
			<stop  offset="0.6706" style="stop-color:#2B2946"/>
			<stop  offset="0.9799" style="stop-color:#242C58"/>
			<stop  offset="1" style="stop-color:#232D59"/>
		</linearGradient>
		<polygon class="st7" points="74.6,187.1 140.6,105.7 222.1,171.8 156,253.2 		"/>
	</g>
</g>
<g>
	<g>
		<defs>
			<path id="SVGID_19_" d="M151.1,159.1c-3.3,7.8-8.8,14.4-15.7,19.1c-3.5,2.3-7.3,4.2-11.3,5.5c-4.1,1.3-8.4,1.9-12.9,2v31.1
				c0,0,43.4-3.8,43.4-74.6C154.5,148.2,153.2,153.9,151.1,159.1"/>
		</defs>
		<clipPath id="SVGID_20_">
			<use xlink:href="#SVGID_19_"  style="overflow:visible;"/>
		</clipPath>
		
			<linearGradient id="SVGID_21_" gradientUnits="userSpaceOnUse" x1="139.9542" y1="-289.468" x2="140.9542" y2="-289.468" gradientTransform="matrix(-83.1128 28.7607 -28.7607 -83.1128 3478.2925 -27917.6699)">
			<stop  offset="0" style="stop-color:#98D4E6"/>
			<stop  offset="0.1308" style="stop-color:#90D0E5"/>
			<stop  offset="0.3184" style="stop-color:#7AC2E1"/>
			<stop  offset="0.5402" style="stop-color:#4DADDA"/>
			<stop  offset="0.786" style="stop-color:#0091CF"/>
			<stop  offset="1" style="stop-color:#0079C2"/>
		</linearGradient>
		<polygon class="st8" points="177.5,208.8 115.7,230.1 88,150.1 149.8,128.8 		"/>
	</g>
</g>
<g>
	<g>
		<defs>
			<path id="SVGID_22_" d="M142.4,67.6v31.1c6,0,11.7,1.2,16.9,3.4c7.8,3.3,14.4,8.8,19.1,15.7c2.3,3.5,4.2,7.3,5.5,11.3
				c1.3,4.1,1.9,8.4,1.9,12.9H217c0-10.3-2.1-20.1-5.9-29c-5.7-13.4-15.1-24.8-27-32.8c-5.9-4-12.5-7.2-19.5-9.4
				C157.6,68.8,150.1,67.6,142.4,67.6L142.4,67.6"/>
		</defs>
		<clipPath id="SVGID_23_">
			<use xlink:href="#SVGID_22_"  style="overflow:visible;"/>
		</clipPath>
		
			<linearGradient id="SVGID_24_" gradientUnits="userSpaceOnUse" x1="140.8218" y1="-292.0598" x2="141.8218" y2="-292.0598" gradientTransform="matrix(-80.0315 -64.9564 64.9564 -80.0315 30449.2949 -14098.876)">
			<stop  offset="0" style="stop-color:#28212D"/>
			<stop  offset="0.1603" style="stop-color:#2A2231"/>
			<stop  offset="0.3933" style="stop-color:#2B2539"/>
			<stop  offset="0.6706" style="stop-color:#2B2946"/>
			<stop  offset="0.9799" style="stop-color:#242C58"/>
			<stop  offset="1" style="stop-color:#232D59"/>
		</linearGradient>
		<polygon class="st9" points="187.4,178.7 105.9,112.6 172,31.1 253.5,97.2 		"/>
	</g>
</g>
<g>
	<g>
		<defs>
			<path id="SVGID_25_" d="M142.4,98.8c6,0,11.7,1.2,16.9,3.4c7.8,3.3,14.4,8.8,19.1,15.7c2.3,3.5,4.2,7.3,5.5,11.3
				c1.3,4.1,1.9,8.4,1.9,12.9H217C217,142.2,213.2,98.8,142.4,98.8"/>
		</defs>
		<clipPath id="SVGID_26_">
			<use xlink:href="#SVGID_25_"  style="overflow:visible;"/>
		</clipPath>
		
			<linearGradient id="SVGID_27_" gradientUnits="userSpaceOnUse" x1="135.3454" y1="-290.1967" x2="136.3454" y2="-290.1967" gradientTransform="matrix(28.7607 83.1128 -83.1128 28.7607 -27845.4316 -2821.0796)">
			<stop  offset="0" style="stop-color:#98D4E6"/>
			<stop  offset="0.1308" style="stop-color:#90D0E5"/>
			<stop  offset="0.3184" style="stop-color:#7AC2E1"/>
			<stop  offset="0.5402" style="stop-color:#4DADDA"/>
			<stop  offset="0.786" style="stop-color:#0091CF"/>
			<stop  offset="1" style="stop-color:#0079C2"/>
		</linearGradient>
		<polygon class="st10" points="209,75.7 230.4,137.5 150.4,165.2 129,103.4 		"/>
	</g>
</g>
</svg>
