<?xml version="1.0" encoding="utf-8"?>
<svg version="1.1" xmlns="http://www.w3.org/2000/svg" xmlns:xlink="http://www.w3.org/1999/xlink" x="0px" y="0px" width="392.7px"
	 height="512px" viewBox="0 0 392.7 512" style="overflow:visible;enable-background:new 0 0 392.7 512;" xml:space="preserve" fill="#1e192b">
<defs>
</defs>
<g>
	<g>
		<g>
			<g>
				<g>
					<path d="M385.2,109.2c4.1,0,7.5-3.4,7.5-7.5V71.5c0,0,0,0,0-0.1c0,0,0-0.1,0-0.1c0-1.7-0.8-3.5-1.9-4.8
						c-0.1-0.1-57.4-64-57.4-64c-1.4-1.6-3.5-2.5-5.6-2.5C327.7,0,29.5,0,29.5,0C13.2,0,0,13.2,0,29.5v453
						C0,498.8,13.2,512,29.5,512h333.6c16.3,0,29.5-13.2,29.5-29.5V136.7c0-4.1-3.4-7.5-7.5-7.5c-4.1,0-7.5,3.4-7.5,7.5v345.8
						c0,8-6.5,14.5-14.5,14.5H29.5c-8,0-14.5-6.5-14.5-14.5v-453c0-8,6.5-14.5,14.5-14.5h290.7v49.6c0,7.9,6.5,14.4,14.4,14.4h43
						v22.7C377.7,105.9,381,109.2,385.2,109.2L385.2,109.2z M335.3,64V27.1L368.4,64H335.3z"/>
					<path d="M221.2,85.5h67.3c4.1,0,7.5-3.4,7.5-7.5s-3.4-7.5-7.5-7.5h-67.3c-4.1,0-7.5,3.4-7.5,7.5S217.1,85.5,221.2,85.5z"/>
					<path d="M342.7,106.8H221.2c-4.1,0-7.5,3.4-7.5,7.5s3.4,7.5,7.5,7.5h121.5c4.1,0,7.5-3.4,7.5-7.5S346.8,106.8,342.7,106.8z"/>
					<path d="M342.7,143.1H221.2c-4.1,0-7.5,3.4-7.5,7.5c0,4.1,3.4,7.5,7.5,7.5h121.5c4.1,0,7.5-3.4,7.5-7.5
						C350.2,146.5,346.8,143.1,342.7,143.1z"/>
					<path d="M190.3,74.7c-4.3-4.3-10-6.7-16.1-6.7c-6.1,0-11.8,2.4-16.1,6.7l-28.7,28.7V75.8c0-8-6.5-14.6-14.6-14.6H57.1
						c-8,0-14.6,6.5-14.6,14.6v57.8c0,8,6.5,14.6,14.6,14.6h40.3l14.6,14.6c3.1,3.1,7.1,4.6,11.2,4.6c4.1,0,8.1-1.5,11.2-4.6
						l55.9-55.9C199.1,98,199.1,83.6,190.3,74.7L190.3,74.7z M82.8,133.1H57.5V76.2h56.9v25.1c-3.8-2.8-8.4-4.3-13.2-4.3
						c-6.1,0-11.8,2.4-16.1,6.7C77.1,111.7,76.3,124.3,82.8,133.1L82.8,133.1z M179.7,96.3l-55.9,55.9c-0.3,0.3-0.9,0.3-1.2,0
						l-26.9-26.9c-3-3-3-7.9,0-11c1.5-1.5,3.4-2.3,5.5-2.3c2.1,0,4,0.8,5.5,2.3l10.6,10.6c1.6,1.6,3.7,2.5,5.9,2.5
						c2.2,0,4.3-0.9,5.9-2.5l39.6-39.6c1.5-1.5,3.4-2.3,5.5-2.3c2.1,0,4,0.8,5.5,2.3C182.7,88.4,182.7,93.3,179.7,96.3L179.7,96.3z"
						/>
					<path d="M221.2,227.2h67.3c4.1,0,7.5-3.4,7.5-7.5c0-4.1-3.4-7.5-7.5-7.5h-67.3c-4.1,0-7.5,3.4-7.5,7.5
						C213.7,223.8,217.1,227.2,221.2,227.2z"/>
					<path d="M342.7,248.5H221.2c-4.1,0-7.5,3.4-7.5,7.5c0,4.1,3.4,7.5,7.5,7.5h121.5c4.1,0,7.5-3.4,7.5-7.5
						C350.2,251.9,346.8,248.5,342.7,248.5z"/>
					<path d="M342.7,284.8H221.2c-4.1,0-7.5,3.4-7.5,7.5c0,4.1,3.4,7.5,7.5,7.5h121.5c4.1,0,7.5-3.4,7.5-7.5
						C350.2,288.2,346.8,284.8,342.7,284.8z"/>
					<path d="M190.3,216.4c-4.3-4.3-10-6.7-16.1-6.7c-6.1,0-11.8,2.4-16.1,6.7l-28.7,28.7v-27.6c0-8-6.5-14.6-14.6-14.6H57.1
						c-8,0-14.6,6.5-14.6,14.6v57.8c0,8,6.5,14.6,14.6,14.6h40.3l14.6,14.6c3.1,3.1,7.1,4.6,11.2,4.6c4.1,0,8.1-1.5,11.2-4.6
						l55.9-55.9C199.1,239.7,199.1,225.3,190.3,216.4L190.3,216.4z M82.8,274.8H57.5v-56.9h56.9V243c-8.9-6.4-21.3-5.6-29.3,2.4
						C77.1,253.4,76.3,266,82.8,274.8L82.8,274.8z M179.7,238l-55.9,55.9c-0.3,0.3-0.9,0.3-1.2,0L95.7,267c-3-3-3-7.9,0-11
						c1.5-1.5,3.4-2.3,5.5-2.3c2.1,0,4,0.8,5.5,2.3l10.6,10.6c1.6,1.6,3.7,2.5,5.9,2.5c2.2,0,4.3-0.9,5.9-2.5l39.6-39.6
						c1.5-1.5,3.4-2.3,5.5-2.3c2.1,0,4,0.8,5.5,2.3C182.7,230.1,182.7,235,179.7,238L179.7,238z"/>
					<path d="M221.2,368.9h67.3c4.1,0,7.5-3.4,7.5-7.5s-3.4-7.5-7.5-7.5h-67.3c-4.1,0-7.5,3.4-7.5,7.5S217.1,368.9,221.2,368.9z"/>
					<path d="M342.7,390.2H221.2c-4.1,0-7.5,3.4-7.5,7.5s3.4,7.5,7.5,7.5h121.5c4.1,0,7.5-3.4,7.5-7.5S346.8,390.2,342.7,390.2z"/>
					<path d="M342.7,426.5H221.2c-4.1,0-7.5,3.4-7.5,7.5c0,4.1,3.4,7.5,7.5,7.5h121.5c4.1,0,7.5-3.4,7.5-7.5
						C350.2,429.9,346.8,426.5,342.7,426.5z"/>
					<path d="M62.5,359.6c4.1,0,7.5-3.4,7.5-7.5s-3.4-7.5-7.5-7.5h-5.4c-8,0-14.6,6.5-14.6,14.6v57.8c0,8,6.5,14.6,14.6,14.6h40.3
						l14.6,14.6c3.1,3.1,7.1,4.6,11.2,4.6c4.1,0,8.1-1.5,11.2-4.6l55.9-55.9c8.9-8.9,8.9-23.3,0-32.2c-4.3-4.3-10-6.7-16.1-6.7
						c-6.1,0-11.8,2.4-16.1,6.7l-28.7,28.7v-27.6c0-8-6.5-14.6-14.6-14.6H97.3c-4.1,0-7.5,3.4-7.5,7.5s3.4,7.5,7.5,7.5h17.1v25.1
						c-8.9-6.4-21.3-5.6-29.3,2.4c-8,8-8.8,20.5-2.3,29.4H57.5v-56.9L62.5,359.6L62.5,359.6z M95.7,397.7c1.5-1.5,3.4-2.3,5.5-2.3
						c2.1,0,4,0.8,5.5,2.3l10.6,10.6c1.6,1.6,3.7,2.5,5.9,2.5c2.2,0,4.3-0.9,5.9-2.5l39.6-39.6c1.5-1.5,3.4-2.3,5.5-2.3
						c2.1,0,4,0.8,5.5,2.3c3,3,3,7.9,0,11l-55.9,55.9c-0.3,0.3-0.9,0.3-1.2,0l-26.9-26.9C92.7,405.6,92.7,400.7,95.7,397.7
						L95.7,397.7z"/>
				</g>
			</g>
		</g>
	</g>
</g>
</svg>
