<?xml version="1.0" encoding="utf-8"?>
<svg version="1.1" xmlns="http://www.w3.org/2000/svg" xmlns:xlink="http://www.w3.org/1999/xlink" x="0px" y="0px" width="512px"
	 height="415.8px" viewBox="0 0 512 415.8" style="overflow:visible;enable-background:new 0 0 512 415.8;" xml:space="preserve">
<style type="text/css">
	.st0{fill:#79C7DE;}
</style>
<defs>
</defs>
<path class="st0" d="M510.4,243.3l-18.6-23.2c-2.6-3.2-7.3-3.8-10.6-1.2c-3.2,2.6-3.8,7.3-1.2,10.6l12.8,16l-77,38.5V149.2
	l44.3,55.4c2.6,3.2,7.3,3.8,10.6,1.2c3.2-2.6,3.8-7.3,1.2-10.6l-57.7-72.1c-2.9-3.7-8.8-3.7-11.7,0l-96.2,120.2
	c-2.9,3.7-1.7,9.3,2.5,11.4l96.2,48.1c2.1,1.1,4.6,1,6.7,0l96.2-48.1C512.1,252.6,513.3,247,510.4,243.3z M400.8,149.2v134.7
	l-77-38.5L400.8,149.2z"/>
<path class="st0" d="M85.6,102.1c3.4,2.3,8.1,1.4,10.4-2c36-53.3,95.8-85,159.9-85c59.2,0,114.7,27.1,151.2,73.1h-14.9
	c-4.2,0-7.5,3.4-7.5,7.5c0,4.2,3.4,7.5,7.5,7.5h32.1c4.2,0,7.5-3.4,7.5-7.5V63.6c0-4.2-3.4-7.5-7.5-7.5c-4.2,0-7.5,3.4-7.5,7.5v12.5
	C377.5,28.1,318.7,0,256,0C186.8,0,122.4,34.3,83.6,91.7C81.3,95.1,82.2,99.8,85.6,102.1L85.6,102.1z"/>
<path class="st0" d="M413.4,329c-3.2-2.7-7.9-2.2-10.6,1c-37.5,45-91,70.8-146.8,70.8c-51,0-100.3-20.7-137-57.1h16.8
	c4.2,0,7.5-3.4,7.5-7.5s-3.4-7.5-7.5-7.5h-32.1c-4.2,0-7.5,3.4-7.5,7.5v32.1c0,4.2,3.4,7.5,7.5,7.5c4.2,0,7.5-3.4,7.5-7.5v-11.2
	c39.2,37.5,91.1,58.7,144.8,58.7c31.1,0,61.1-7.1,89.1-21c26.4-13.2,49.7-31.7,69.3-55.2C417,336.4,416.6,331.7,413.4,329L413.4,329
	z"/>
<path class="st0" d="M96.4,292.8c-0.1,1.1-0.2,2.2-0.2,3.3c0,13,10.6,23.5,23.5,23.5c13,0,23.5-10.6,23.5-23.5
	c0-1.1-0.1-2.2-0.2-3.3l56.3-28.1c4.3,4.2,10.1,6.9,16.6,6.9c13,0,23.5-10.6,23.5-23.5s-10.6-23.5-23.5-23.5c-2.8,0-5.6,0.5-8.1,1.4
	l-14.6-18.2c3.8-4.2,6.1-9.7,6.1-15.8c0-13-10.6-23.5-23.5-23.5c-4.2,0-8.2,1.1-11.6,3.1l-24.7-30.9c2.4-3.7,3.7-8,3.7-12.7
	c0-13-10.6-23.5-23.5-23.5s-23.5,10.6-23.5,23.5c0,4.7,1.4,9,3.7,12.7l-24.7,30.9c-3.4-1.9-7.4-3.1-11.6-3.1
	c-13,0-23.5,10.6-23.5,23.5c0,6.1,2.3,11.6,6.1,15.8l-14.6,18.2c-2.5-0.9-5.2-1.4-8.1-1.4C10.6,224.4,0,235,0,248
	s10.6,23.5,23.5,23.5c6.5,0,12.3-2.6,16.6-6.9L96.4,292.8z M63.6,215.4c7.8,0,14.7-3.8,19-9.7l13.8,6.9c-0.1,1.1-0.2,2.2-0.2,3.3
	c0,10.4,6.7,19.2,16,22.3v35.5c-3.4,1.2-6.5,3.1-9.1,5.6l-56.3-28.1c0.1-1.1,0.2-2.2,0.2-3.3c0-4.7-1.4-9-3.7-12.7l16.2-20.2
	C60.9,215.3,62.2,215.4,63.6,215.4z M180,215.1l16.2,20.2c-2.4,3.7-3.7,8-3.7,12.7c0,1.1,0.1,2.2,0.2,3.3l-56.3,28.1
	c-2.5-2.5-5.6-4.4-9.1-5.6v-35.5c9.3-3.1,16-12,16-22.3c0-1.1-0.1-2.2-0.2-3.3l13.8-6.9c4.3,5.8,11.2,9.7,19,9.7
	C177.2,215.4,178.6,215.3,180,215.1z M119.7,207.4c4.7,0,8.5,3.8,8.5,8.5s-3.8,8.5-8.5,8.5c-4.7,0-8.5-3.8-8.5-8.5
	S115,207.4,119.7,207.4z M152.3,191.2l-16,8c-2.5-2.5-5.6-4.4-9.1-5.6v-43.6c0.2-0.1,0.4-0.1,0.6-0.2l26.3,32.9
	C153,185.4,152.4,188.2,152.3,191.2L152.3,191.2z M112.2,150.1v43.6c-3.4,1.2-6.5,3.1-9.1,5.6l-16-8c-0.1-3-0.7-5.8-1.8-8.5
	l26.3-32.9C111.8,149.9,112,150,112.2,150.1L112.2,150.1z M119.7,304.6c-4.7,0-8.5-3.8-8.5-8.5s3.8-8.5,8.5-8.5
	c4.7,0,8.5,3.8,8.5,8.5S124.4,304.6,119.7,304.6z M224.4,248c0,4.7-3.8,8.5-8.5,8.5c-4.7,0-8.5-3.8-8.5-8.5s3.8-8.5,8.5-8.5
	C220.6,239.5,224.4,243.3,224.4,248z M175.8,183.4c4.7,0,8.5,3.8,8.5,8.5c0,4.7-3.8,8.5-8.5,8.5s-8.5-3.8-8.5-8.5
	C167.3,187.2,171.1,183.4,175.8,183.4z M119.7,119.2c4.7,0,8.5,3.8,8.5,8.5s-3.8,8.5-8.5,8.5c-4.7,0-8.5-3.8-8.5-8.5
	S115,119.2,119.7,119.2z M63.6,183.4c4.7,0,8.5,3.8,8.5,8.5c0,4.7-3.8,8.5-8.5,8.5s-8.5-3.8-8.5-8.5
	C55.1,187.2,58.9,183.4,63.6,183.4z M23.5,256.5c-4.7,0-8.5-3.8-8.5-8.5s3.8-8.5,8.5-8.5s8.5,3.8,8.5,8.5S28.2,256.5,23.5,256.5z"/>
</svg>
