<?xml version="1.0" encoding="utf-8"?>
<svg version="1.1" xmlns="http://www.w3.org/2000/svg" xmlns:xlink="http://www.w3.org/1999/xlink" x="0px" y="0px" width="230.1px"
	 height="512px" viewBox="0 0 230.1 512" style="overflow:visible;enable-background:new 0 0 230.1 512;" xml:space="preserve">
<style type="text/css">
	.st0{fill:#0B9AD3;}
</style>
<defs>
</defs>
<path class="st0" d="M101.7,17.9c-0.2-0.2-0.5-0.6-0.5-1.2C101.2,7.5,93.8,0,84.6,0H27.5C12.3,0,0,12.3,0,27.5v46.8
	c0,4.1,3.4,7.5,7.5,7.5s7.5-3.4,7.5-7.5V27.5C15,20.6,20.6,15,27.5,15h57.1c0.9,0,1.7,0.8,1.7,1.7c0,4.4,1.7,8.6,4.9,11.8
	c3.2,3.1,7.3,4.9,11.8,4.9h43.8c9.2,0,16.7-7.5,16.7-16.7c0-0.6,0.3-1,0.5-1.2c0.2-0.2,0.6-0.5,1.2-0.5h11.3c1.4,0,2.5,1.1,2.5,2.5
	v213.1h-8.2c-6.8,0-13.2,2.6-17.9,7.4c-4.8,4.8-7.4,11.2-7.4,17.9c0,14,11.4,25.4,25.4,25.4h8.2v46.9c0,4.1,3.4,7.5,7.5,7.5
	c4.1,0,7.5-3.4,7.5-7.5v-46.9h18.7c1.4,0,2.5,1.1,2.5,2.5v167.7c-0.8-0.1-1.7-0.2-2.5-0.2h-18.7v-87.6c0-4.1-3.4-7.5-7.5-7.5
	c-4.1,0-7.5,3.4-7.5,7.5v130.8c0,1.4-1.1,2.5-2.5,2.5H165c-0.9,0-1.7-0.8-1.7-1.7c0-4.5-1.7-8.6-4.9-11.8c-3.2-3.1-7.3-4.9-11.8-4.9
	h-43.8c-9.2,0-16.7,7.5-16.7,16.7c0,0.6-0.3,1-0.5,1.2c-0.2,0.2-0.6,0.5-1.2,0.5H27.5c-6.9,0-12.5-5.6-12.5-12.5V109.7
	c0-4.1-3.4-7.5-7.5-7.5c-4.1,0-7.5,3.4-7.5,7.5v374.8C0,499.7,12.3,512,27.5,512h57.1c4.5,0,8.6-1.7,11.8-4.9
	c3.1-3.2,4.9-7.3,4.9-11.8c0-0.9,0.8-1.7,1.7-1.7h43.8c0.6,0,1,0.3,1.2,0.5c0.2,0.2,0.5,0.6,0.5,1.2c0,9.2,7.5,16.7,16.7,16.7h11.3
	c8.6,0,15.7-6.2,17.2-14.3h19c9.6,0,17.5-7.9,17.5-17.5l0-196.3c0-9.6-7.9-17.5-17.5-17.5h-42c-5.7,0-10.4-4.7-10.4-10.4
	c0-2.8,1.1-5.4,3.1-7.3c1.9-2,4.6-3,7.3-3h42c9.6,0,17.5-7.9,17.5-17.5l0-196.3c0-9.6-7.9-17.5-17.5-17.5h-19
	C192.1,6.2,184.9,0,176.4,0H165c-4.5,0-8.6,1.7-11.8,4.9s-4.9,7.3-4.9,11.8c0,0.9-0.8,1.7-1.7,1.7h-43.8
	C102.3,18.3,101.9,18.1,101.7,17.9z M193.9,482.7v-16.3h18.7c1.4,0,2.5,1.1,2.5,2.5v11.3c0,1.4-1.1,2.5-2.5,2.5H193.9z M212.6,230.6
	h-18.7v-170h18.7c0.9,0,1.7-0.1,2.5-0.2v167.7C215.1,229.5,214,230.6,212.6,230.6z M215.1,31.8v11.3c0,1.4-1.1,2.5-2.5,2.5h-18.7
	V29.3h18.7C214,29.3,215.1,30.5,215.1,31.8z"/>
<path class="st0" d="M103.2,181.6c0,4.1,3.4,7.5,7.5,7.5h29c9.6,0,17.5-7.9,17.5-17.5v-25c0-9.6-7.9-17.5-17.5-17.5H54.1
	c-9.6,0-17.5,7.9-17.5,17.5v25c0,9.6,7.9,17.5,17.5,17.5h21.2c4.1,0,7.5-3.4,7.5-7.5s-3.4-7.5-7.5-7.5H54.1c-1.4,0-2.5-1.1-2.5-2.5
	v-25c0-1.4,1.1-2.5,2.5-2.5h85.6c1.4,0,2.5,1.1,2.5,2.5v25c0,1.4-1.1,2.5-2.5,2.5h-29C106.6,174.1,103.2,177.4,103.2,181.6z"/>
<path class="st0" d="M54.1,113.7h85.6c9.6,0,17.5-7.9,17.5-17.5v-25c0-9.6-7.9-17.5-17.5-17.5H54.1c-9.6,0-17.5,7.9-17.5,17.5v25
	C36.6,105.9,44.5,113.7,54.1,113.7z M54.1,98.7c-1.4,0-2.5-1.1-2.5-2.5v-25c0-1.4,1.1-2.5,2.5-2.5h85.6c1.4,0,2.5,1.1,2.5,2.5v25
	c0,1.4-1.1,2.5-2.5,2.5H54.1z"/>
<path class="st0" d="M36.6,440.8c0,9.6,7.9,17.5,17.5,17.5h85.6c9.6,0,17.5-7.9,17.5-17.5v-25c0-9.6-7.9-17.5-17.5-17.5H54.1
	c-9.6,0-17.5,7.9-17.5,17.5V440.8z M54.1,413.3h85.6c1.4,0,2.5,1.1,2.5,2.5v25c0,1.4-1.1,2.5-2.5,2.5H54.1c-1.4,0-2.5-1.1-2.5-2.5
	v-25C51.6,414.4,52.7,413.3,54.1,413.3z"/>
<path class="st0" d="M36.6,365.4c0,9.6,7.9,17.5,17.5,17.5h85.6c9.6,0,17.5-7.9,17.5-17.5v-25c0-9.6-7.9-17.5-17.5-17.5H54.1
	c-9.6,0-17.5,7.9-17.5,17.5V365.4z M54.1,337.9h85.6c1.4,0,2.5,1.1,2.5,2.5v25c0,1.4-1.1,2.5-2.5,2.5H54.1c-1.4,0-2.5-1.1-2.5-2.5
	v-25C51.6,339.1,52.7,337.9,54.1,337.9z"/>
<path class="st0" d="M75.7,288v10.5c0,4.1,3.4,7.5,7.5,7.5s7.5-3.4,7.5-7.5V288c0-4.1-3.4-7.5-7.5-7.5S75.7,283.9,75.7,288z"/>
<path class="st0" d="M75.7,250.8v10.5c0,4.1,3.4,7.5,7.5,7.5s7.5-3.4,7.5-7.5v-10.5c0-4.1-3.4-7.5-7.5-7.5S75.7,246.6,75.7,250.8z"
	/>
<path class="st0" d="M75.7,213.5V224c0,4.1,3.4,7.5,7.5,7.5s7.5-3.4,7.5-7.5v-10.5c0-4.1-3.4-7.5-7.5-7.5S75.7,209.4,75.7,213.5z"/>
<path class="st0" d="M103.2,288v10.5c0,4.1,3.4,7.5,7.5,7.5s7.5-3.4,7.5-7.5V288c0-4.1-3.4-7.5-7.5-7.5S103.2,283.9,103.2,288z"/>
<path class="st0" d="M103.2,250.8v10.5c0,4.1,3.4,7.5,7.5,7.5s7.5-3.4,7.5-7.5v-10.5c0-4.1-3.4-7.5-7.5-7.5S103.2,246.6,103.2,250.8
	z"/>
<path class="st0" d="M103.2,213.5V224c0,4.1,3.4,7.5,7.5,7.5s7.5-3.4,7.5-7.5v-10.5c0-4.1-3.4-7.5-7.5-7.5S103.2,209.4,103.2,213.5z
	"/>
<path class="st0" d="M44.1,221.3c-4.1,0-7.5,3.4-7.5,7.5v54.5c0,4.1,3.4,7.5,7.5,7.5c4.1,0,7.5-3.4,7.5-7.5v-54.5
	C51.6,224.6,48.3,221.3,44.1,221.3z"/>
</svg>
