<?xml version="1.0" encoding="utf-8"?>
<svg version="1.1" xmlns="http://www.w3.org/2000/svg" xmlns:xlink="http://www.w3.org/1999/xlink" x="0px" y="0px" width="408.6px"
	 height="512px" viewBox="0 0 408.6 512" style="overflow:visible;enable-background:new 0 0 408.6 512;" xml:space="preserve">
<style type="text/css">
	.st0{fill:#1E192B;}
</style>
<defs>
</defs>
<g>
	<path class="st0" d="M361.1,73.2c-6.2-7.4-17.7,2.2-11.5,9.6c28.4,33.9,44.1,77,44.1,121.3c0,36.5-10.4,71.9-30.1,102.4
		c-18.9,29.3-45.3,52.7-76.6,67.9H121.6c-31.2-15.2-57.7-38.6-76.6-67.9C25.4,276.1,15,240.7,15,204.2C15,99.9,99.9,15,204.3,15
		c43.5,0,84.4,14.3,118.3,41.5c7.5,6,16.9-5.7,9.4-11.7C295.9,15.9,250.6,0,204.3,0C91.7,0,0,91.6,0,204.2
		c0,39.4,11.2,77.6,32.5,110.5c19.8,30.7,47.4,55.5,79.9,71.9v17h-2.9c-9.7,0-9.7,15,0,15h2.9c0,4.4,0.5,8.7,1.4,12.8
		c-9.6,0.2-9.4,15,0.1,15h5.3c8.4,15.9,23.7,27.7,41.9,31.2v4.6c0,16.4,13.4,29.7,29.8,29.7h26.9c16.4,0,29.8-13.3,29.8-29.7v-4.6
		c18.2-3.5,33.5-15.2,41.9-31.2h6.3c9.7,0,9.7-15,0-15h-0.9c0.9-4.1,1.4-8.4,1.4-12.8h2.9c9.7,0,9.7-15,0-15h-2.9v-17
		c32.5-16.4,60.1-41.2,79.9-71.9c21.2-32.9,32.5-71.1,32.5-110.5C408.6,156.4,391.7,109.9,361.1,73.2z M217.8,497h-26.9
		c-8.1,0-14.8-6.6-14.8-14.7v-3.5h56.4v3.5C232.5,490.4,225.9,497,217.8,497z M236.1,463.7h-63.6c-14.4,0-27.2-6.8-35.5-17.3h134.5
		C263.3,457,250.5,463.7,236.1,463.7z M188.3,403.7c-9.7,0-9.7,15,0,15h92.9c0,4.4-0.7,8.7-1.9,12.8H129.3
		c-1.2-4.1-1.9-8.4-1.9-12.8h26.9c9.7,0,9.7-15,0-15h-26.9v-14.2h153.8v14.2H188.3z"/>
	<path class="st0" d="M204.3,39.5c-90.2,0-163.5,73.3-163.5,163.5c0,9.7,15,9.7,15,0c0-81.9,66.6-148.5,148.5-148.5
		C214,54.5,214,39.5,204.3,39.5z"/>
	<path class="st0" d="M211.8,128c0-9.7-15-9.7-15,0v39.3c0,9.7,15,9.7,15,0V128z"/>
	<path class="st0" d="M174.5,176.5l-27.8-27.8c-6.8-6.8-17.5,3.8-10.6,10.6l27.8,27.8C170.8,193.9,181.4,183.3,174.5,176.5z"/>
	<path class="st0" d="M162.2,216.8c0-4.1-3.4-7.5-7.5-7.5h-39.3c-9.7,0-9.7,15,0,15h39.3C158.9,224.3,162.2,221,162.2,216.8z"/>
	<path class="st0" d="M141.5,287.2c1.9,0,3.8-0.7,5.3-2.2l27.8-27.8c6.8-6.8-3.8-17.5-10.6-10.6l-27.8,27.8
		C131.6,279,134.9,287.2,141.5,287.2z"/>
	<path class="st0" d="M204.3,258.9c-4.1,0-7.5,3.4-7.5,7.5v39.3c0,9.7,15,9.7,15,0v-39.3C211.8,262.3,208.4,258.9,204.3,258.9z"/>
	<path class="st0" d="M234.1,257.2l27.8,27.8c6.8,6.8,17.4-3.8,10.6-10.6l-27.8-27.8C237.8,239.8,227.2,250.3,234.1,257.2z"/>
	<path class="st0" d="M300.6,216.8c0-4.1-3.4-7.5-7.5-7.5l-39.3,0c-9.7,0-9.7,15,0,15l39.3,0C297.3,224.3,300.6,221,300.6,216.8z"/>
	<path class="st0" d="M239.4,189.3c1.9,0,3.8-0.7,5.3-2.2l27.8-27.8c6.8-6.8-3.8-17.5-10.6-10.6l-27.8,27.8
		C229.4,181.1,232.8,189.3,239.4,189.3z"/>
</g>
</svg>
