<?xml version="1.0" encoding="utf-8"?>
<svg fill="#79c7de" version="1.1" xmlns="http://www.w3.org/2000/svg" xmlns:xlink="http://www.w3.org/1999/xlink" x="0px" y="0px" width="511.4px"
	 height="512px" viewBox="0 0 511.4 512" style="overflow:visible;enable-background:new 0 0 511.4 512;" xml:space="preserve">
<defs>
</defs>
<path d="M436.5,75C388.2,26.6,324,0,255.7,0c-48.8,0-96.3,13.8-137.2,40c-39.9,25.4-71.9,61.3-92.6,103.8
	c-4.2,8.7,9.2,15.3,13.5,6.6c3.2-6.5,6.6-12.8,10.4-19c26,40.1,86.1,41.5,127.9,33.8c46.6-8.6,94-31,125.7-67
	c17-19.4,30.8-45.2,26-71.7C362.4,37,393,54.9,419.1,79.1c0.1,0.7,0.2,1.3,0.4,2c11.1,30.5,2,68.3-24.8,103.8
	c-28.6,37.8-73.7,69.3-127.1,88.6c-53.3,19.3-111.6,24.9-159.8,15.3c-46.6-9.3-79.6-31.8-90.5-61.8c-0.1-0.4-0.3-0.7-0.5-1
	c1.7-13.5,4.5-26.7,8.4-39.7c2.8-9.3-11.6-13.6-14.4-4.3C3.7,205.8,0,230.7,0,256c0,68.4,26.6,132.7,74.9,181
	c48.3,48.4,112.5,75,180.8,75s132.5-26.6,180.8-75c48.3-48.4,74.9-112.6,74.9-181S484.8,123.3,436.5,75z M312.6,21.8
	c6.8,18.6,0.5,41-17.7,63.1c-19.1,23.2-48.7,42.9-83.4,55.5c-34.7,12.6-70,16.4-99.6,10.9c-26.6-5-45.3-17.1-52.9-34.2
	c18-25.6,40.9-47.5,67.6-64.5C165.1,28,209.8,15,255.7,15C275.1,15,294.2,17.3,312.6,21.8C312.6,21.8,312.6,21.8,312.6,21.8z
	 M425.9,426.4C380.4,471.9,320,497,255.7,497S131,471.9,85.5,426.4c-7.5-7.5-14.4-15.4-20.7-23.6c17.4,11,38.5,19.3,62.4,24.6
	c19.2,4.2,39.4,6.3,60.2,6.3c40.4,0,83-7.8,124.3-23.1c47.1-17.5,89.7-43.7,123.1-76c7-6.7-3.5-17.5-10.4-10.8
	c-31.9,30.8-72.7,55.9-117.9,72.7c-59.9,22.2-122.4,28-176.1,16.3c-50.8-11.1-87.1-37-99.8-71.2c-0.1-0.3-0.3-0.6-0.4-1
	C20.2,313.9,15,285.4,15,256c0-0.8,0-1.5,0-2.3c17.9,24,49.4,41.7,89.9,49.7c16.8,3.4,34.5,5,52.7,5c37.5,0,77-7.1,115.1-20.9
	c56.1-20.3,103.7-53.6,134-93.7c23.5-31.1,34.6-64.4,32.1-94.3c23.3,27.3,44,60.6,45.1,97.3c1.1,35.2-12,69.8-33.1,97.6
	c-5.9,7.7,6,16.8,11.9,9.1c16-21,27.2-42.6,33.2-63.6c0.3,5.3,0.5,10.7,0.5,16C496.4,320.4,471.3,380.9,425.9,426.4z"/>
</svg>
